%TF.GenerationSoftware,KiCad,Pcbnew,7.0.9*%
%TF.CreationDate,2024-09-14T16:33:58+02:00*%
%TF.ProjectId,DeskHop_Rev1,4465736b-486f-4705-9f52-6576312e6b69,rev?*%
%TF.SameCoordinates,Original*%
%TF.FileFunction,Legend,Bot*%
%TF.FilePolarity,Positive*%
%FSLAX46Y46*%
G04 Gerber Fmt 4.6, Leading zero omitted, Abs format (unit mm)*
G04 Created by KiCad (PCBNEW 7.0.9) date 2024-09-14 16:33:58*
%MOMM*%
%LPD*%
G01*
G04 APERTURE LIST*
%ADD10C,0.120000*%
%ADD11C,0.000000*%
%ADD12C,0.200000*%
%ADD13C,0.400000*%
G04 APERTURE END LIST*
D10*
X67310000Y-48738426D02*
X67309441Y-50058426D01*
X67309238Y-50538426D02*
X67308679Y-51858426D01*
X67308476Y-52338426D02*
X67307918Y-53658426D01*
X67307715Y-54138426D02*
X67307156Y-55458425D01*
X67306953Y-55938425D02*
X67306394Y-57258425D01*
X67306191Y-57738425D02*
X67305632Y-59058425D01*
X67305429Y-59538425D02*
X67304870Y-60858425D01*
X67304667Y-61338425D02*
X67304109Y-62658425D01*
X67303905Y-63138425D02*
X67303347Y-64458425D01*
X67303144Y-64938425D02*
X67302585Y-66258424D01*
X67302382Y-66738424D02*
X67301823Y-68058424D01*
X67301620Y-68538424D02*
X67301061Y-69858424D01*
X67300858Y-70338424D02*
X67300299Y-71658424D01*
X67300096Y-72138424D02*
X67299538Y-73458424D01*
X67299334Y-73938424D02*
X67298776Y-75258424D01*
X67298573Y-75738424D02*
X67298014Y-77058423D01*
X67297811Y-77538423D02*
X67297252Y-78858423D01*
X67297049Y-79338423D02*
X67296490Y-80658423D01*
X67296287Y-81138423D02*
X67295728Y-82458423D01*
X67295525Y-82938423D02*
X67294967Y-84258423D01*
X67294763Y-84738423D02*
X67294205Y-86058423D01*
X67294002Y-86538423D02*
X67293443Y-87858422D01*
X67293240Y-88338422D02*
X67292681Y-89658422D01*
X67292478Y-90138422D02*
X67291919Y-91458422D01*
X67291716Y-91938422D02*
X67291157Y-93258422D01*
X67290954Y-93738422D02*
X67290396Y-95058422D01*
X67290192Y-95538422D02*
X67289634Y-96858422D01*
X67289431Y-97338422D02*
X67288872Y-98658422D01*
X67288669Y-99138421D02*
X67288110Y-100458421D01*
X67287907Y-100938421D02*
X67287348Y-102258421D01*
X67287145Y-102738421D02*
X67286586Y-104058421D01*
X67286383Y-104538421D02*
X67285825Y-105858421D01*
X67285621Y-106338421D02*
X67285063Y-107658421D01*
X67284860Y-108138421D02*
X67284301Y-109458421D01*
X67284098Y-109938421D02*
X67283539Y-111258420D01*
X67283336Y-111738420D02*
X67282777Y-113058420D01*
X67282574Y-113538420D02*
X67282015Y-114858420D01*
X67281812Y-115338420D02*
X67281783Y-115407659D01*
D11*
G36*
X86028315Y-84071099D02*
G01*
X86056698Y-84073266D01*
X86084668Y-84076829D01*
X86112191Y-84081752D01*
X86139230Y-84088001D01*
X86165751Y-84095539D01*
X86191720Y-84104331D01*
X86217100Y-84114344D01*
X86241856Y-84125541D01*
X86265955Y-84137888D01*
X86289360Y-84151349D01*
X86312036Y-84165890D01*
X86333949Y-84181475D01*
X86355063Y-84198069D01*
X86375343Y-84215637D01*
X86394754Y-84234145D01*
X86413262Y-84253556D01*
X86430830Y-84273837D01*
X86447424Y-84294951D01*
X86463009Y-84316863D01*
X86477550Y-84339540D01*
X86491011Y-84362945D01*
X86503358Y-84387043D01*
X86514555Y-84411800D01*
X86524568Y-84437180D01*
X86533361Y-84463148D01*
X86540899Y-84489670D01*
X86547147Y-84516709D01*
X86552070Y-84544232D01*
X86555633Y-84572202D01*
X86557801Y-84600585D01*
X86558539Y-84629345D01*
X86558539Y-85445172D01*
X86557888Y-85472926D01*
X86555873Y-85500493D01*
X86552512Y-85527828D01*
X86547825Y-85554884D01*
X86541830Y-85581615D01*
X86534547Y-85607975D01*
X86525995Y-85633919D01*
X86516191Y-85659400D01*
X86505156Y-85684372D01*
X86492909Y-85708789D01*
X86479468Y-85732606D01*
X86464852Y-85755777D01*
X86449081Y-85778255D01*
X86432173Y-85799994D01*
X86414148Y-85820949D01*
X86395023Y-85841073D01*
X86374925Y-85860225D01*
X86353995Y-85878279D01*
X86332280Y-85895216D01*
X86309825Y-85911018D01*
X86286678Y-85925665D01*
X86262884Y-85939138D01*
X86238490Y-85951419D01*
X86213541Y-85962488D01*
X86188085Y-85972326D01*
X86162167Y-85980914D01*
X86135833Y-85988233D01*
X86109131Y-85994264D01*
X86082106Y-85998988D01*
X86054804Y-86002386D01*
X86027271Y-86004438D01*
X85999555Y-86005127D01*
X85971802Y-86004428D01*
X85944238Y-86002365D01*
X85916909Y-85998957D01*
X85889861Y-85994223D01*
X85863141Y-85988182D01*
X85836793Y-85980853D01*
X85810864Y-85972255D01*
X85785400Y-85962408D01*
X85760447Y-85951329D01*
X85736051Y-85939040D01*
X85712257Y-85925558D01*
X85689112Y-85910902D01*
X85666661Y-85895092D01*
X85644951Y-85878147D01*
X85624028Y-85860085D01*
X85603937Y-85840927D01*
X85584821Y-85820796D01*
X85566803Y-85799835D01*
X85549904Y-85778089D01*
X85534141Y-85755606D01*
X85519534Y-85732430D01*
X85506102Y-85708608D01*
X85493864Y-85684186D01*
X85482838Y-85659210D01*
X85473045Y-85633725D01*
X85464502Y-85607778D01*
X85457228Y-85581415D01*
X85451243Y-85554682D01*
X85446566Y-85527624D01*
X85443216Y-85500289D01*
X85441211Y-85472720D01*
X85440570Y-85444966D01*
X85440570Y-84629332D01*
X85441309Y-84600571D01*
X85443478Y-84572188D01*
X85447042Y-84544218D01*
X85451966Y-84516696D01*
X85458215Y-84489656D01*
X85465754Y-84463135D01*
X85474547Y-84437167D01*
X85484560Y-84411787D01*
X85495758Y-84387031D01*
X85508106Y-84362932D01*
X85521568Y-84339528D01*
X85536109Y-84316852D01*
X85551694Y-84294939D01*
X85568289Y-84273825D01*
X85585858Y-84253546D01*
X85604365Y-84234135D01*
X85623777Y-84215628D01*
X85644057Y-84198060D01*
X85665171Y-84181466D01*
X85687084Y-84165882D01*
X85709760Y-84151341D01*
X85733164Y-84137881D01*
X85757262Y-84125535D01*
X85782019Y-84114338D01*
X85807398Y-84104326D01*
X85833365Y-84095534D01*
X85859886Y-84087997D01*
X85886924Y-84081749D01*
X85914445Y-84076827D01*
X85942414Y-84073265D01*
X85970796Y-84071098D01*
X85999555Y-84070361D01*
X86028315Y-84071099D01*
G37*
G36*
X48882416Y-62074785D02*
G01*
X48889291Y-62075364D01*
X48896282Y-62076316D01*
X48903371Y-62077628D01*
X48910543Y-62079289D01*
X48917782Y-62081288D01*
X48925072Y-62083612D01*
X48932396Y-62086251D01*
X48947082Y-62092424D01*
X48961714Y-62099716D01*
X48976161Y-62108033D01*
X48990295Y-62117283D01*
X49003987Y-62127372D01*
X49017109Y-62138209D01*
X49029531Y-62149701D01*
X49041125Y-62161755D01*
X49051762Y-62174278D01*
X49056681Y-62180687D01*
X49061313Y-62187178D01*
X49065641Y-62193740D01*
X49069649Y-62200362D01*
X49073321Y-62207032D01*
X49076641Y-62213738D01*
X49083986Y-62246795D01*
X49096140Y-62317703D01*
X49132124Y-62555281D01*
X49179096Y-62890895D01*
X49231562Y-63288967D01*
X49282657Y-63683352D01*
X49326301Y-64008953D01*
X49358164Y-64231773D01*
X49368325Y-64294017D01*
X49371726Y-64310987D01*
X49373917Y-64317816D01*
X49407813Y-64305686D01*
X49499066Y-64265044D01*
X49828719Y-64110677D01*
X50902141Y-63596779D01*
X51297470Y-63405451D01*
X51626414Y-63247329D01*
X51894026Y-63120041D01*
X52105359Y-63021215D01*
X52265468Y-62948479D01*
X52379405Y-62899461D01*
X52420638Y-62883106D01*
X52452224Y-62871790D01*
X52474793Y-62865218D01*
X52488979Y-62863094D01*
X52496447Y-62863241D01*
X52503932Y-62863680D01*
X52511424Y-62864407D01*
X52518915Y-62865416D01*
X52526397Y-62866703D01*
X52533862Y-62868263D01*
X52541300Y-62870093D01*
X52548704Y-62872186D01*
X52556065Y-62874538D01*
X52563375Y-62877145D01*
X52577807Y-62883106D01*
X52591932Y-62890030D01*
X52605683Y-62897881D01*
X52618992Y-62906620D01*
X52631793Y-62916213D01*
X52644018Y-62926621D01*
X52649893Y-62932119D01*
X52655599Y-62937807D01*
X52661127Y-62943680D01*
X52666468Y-62949734D01*
X52671616Y-62955964D01*
X52676560Y-62962365D01*
X52681292Y-62968933D01*
X52685805Y-62975664D01*
X52690089Y-62982551D01*
X52694137Y-62989592D01*
X52770874Y-63142658D01*
X52887256Y-63383975D01*
X53177720Y-64000519D01*
X53443066Y-64577533D01*
X53528050Y-64769438D01*
X53560830Y-64853326D01*
X53561467Y-64862624D01*
X53561791Y-64871575D01*
X53561782Y-64880231D01*
X53561424Y-64888639D01*
X53560697Y-64896849D01*
X53559583Y-64904911D01*
X53558064Y-64912875D01*
X53556122Y-64920789D01*
X53553738Y-64928703D01*
X53550894Y-64936667D01*
X53547573Y-64944730D01*
X53543754Y-64952941D01*
X53539421Y-64961350D01*
X53534555Y-64970006D01*
X53529138Y-64978958D01*
X53523151Y-64988257D01*
X53500923Y-65012708D01*
X53455241Y-65045510D01*
X53375214Y-65092246D01*
X53249950Y-65158501D01*
X52820137Y-65371900D01*
X52078662Y-65730376D01*
X50550439Y-66472498D01*
X50420647Y-66535748D01*
X50889582Y-67037523D01*
X51231244Y-67394312D01*
X51368672Y-67538212D01*
X51485959Y-67661514D01*
X51584699Y-67766013D01*
X51627612Y-67811774D01*
X51666486Y-67853509D01*
X51701521Y-67891442D01*
X51732916Y-67925797D01*
X51760869Y-67956801D01*
X51785582Y-67984676D01*
X51807252Y-68009649D01*
X51826080Y-68031943D01*
X51842264Y-68051784D01*
X51856005Y-68069395D01*
X51867500Y-68085003D01*
X51876950Y-68098830D01*
X51884554Y-68111103D01*
X51887726Y-68116726D01*
X51890511Y-68122045D01*
X51892935Y-68127088D01*
X51895021Y-68131882D01*
X51896796Y-68136456D01*
X51898283Y-68140838D01*
X51899508Y-68145055D01*
X51900496Y-68149137D01*
X51901860Y-68157005D01*
X51902573Y-68164666D01*
X51902836Y-68172345D01*
X51902808Y-68188654D01*
X51902661Y-68197744D01*
X51902225Y-68206822D01*
X51901503Y-68215874D01*
X51900501Y-68224890D01*
X51899223Y-68233856D01*
X51897674Y-68242761D01*
X51895858Y-68251591D01*
X51893779Y-68260335D01*
X51891443Y-68268980D01*
X51888854Y-68277514D01*
X51886017Y-68285924D01*
X51882936Y-68294199D01*
X51879616Y-68302325D01*
X51876061Y-68310291D01*
X51872276Y-68318084D01*
X51868266Y-68325691D01*
X51864035Y-68333101D01*
X51859587Y-68340301D01*
X51854928Y-68347278D01*
X51850063Y-68354021D01*
X51844995Y-68360517D01*
X51839729Y-68366753D01*
X51834270Y-68372718D01*
X51828622Y-68378398D01*
X51822790Y-68383782D01*
X51816779Y-68388858D01*
X51810593Y-68393612D01*
X51804237Y-68398032D01*
X51797716Y-68402107D01*
X51791034Y-68405823D01*
X51784195Y-68409169D01*
X51777204Y-68412132D01*
X50505889Y-68451597D01*
X47789696Y-68503317D01*
X45077428Y-68543177D01*
X43817886Y-68547063D01*
X43812251Y-68543658D01*
X43806364Y-68539791D01*
X43800270Y-68535490D01*
X43794010Y-68530789D01*
X43787627Y-68525717D01*
X43781165Y-68520305D01*
X43774667Y-68514584D01*
X43768174Y-68508585D01*
X43761730Y-68502339D01*
X43755378Y-68495878D01*
X43749160Y-68489231D01*
X43743120Y-68482429D01*
X43737300Y-68475505D01*
X43731742Y-68468487D01*
X43726491Y-68461409D01*
X43721589Y-68454299D01*
X43721577Y-68454297D01*
X43712698Y-68440857D01*
X43704891Y-68427416D01*
X43698152Y-68413976D01*
X43692473Y-68400536D01*
X43687850Y-68387095D01*
X43684275Y-68373655D01*
X43681743Y-68360214D01*
X43680246Y-68346774D01*
X43679780Y-68333334D01*
X43680338Y-68319893D01*
X43681913Y-68306453D01*
X43684500Y-68293012D01*
X43688092Y-68279572D01*
X43692683Y-68266132D01*
X43698267Y-68252691D01*
X43704837Y-68239251D01*
X43865379Y-68034812D01*
X44285772Y-67517686D01*
X45651752Y-65856875D01*
X47176311Y-64006844D01*
X48138775Y-62833577D01*
X48261585Y-62683427D01*
X48374681Y-62547112D01*
X48476590Y-62426215D01*
X48565841Y-62322316D01*
X48640960Y-62236996D01*
X48700477Y-62171837D01*
X48723924Y-62147311D01*
X48742918Y-62128418D01*
X48757276Y-62115356D01*
X48766813Y-62108321D01*
X48773279Y-62105162D01*
X48780075Y-62102028D01*
X48794416Y-62095932D01*
X48809346Y-62090233D01*
X48816878Y-62087594D01*
X48824374Y-62085128D01*
X48831772Y-62082859D01*
X48839011Y-62080813D01*
X48846029Y-62079014D01*
X48852766Y-62077487D01*
X48859160Y-62076256D01*
X48865149Y-62075346D01*
X48870674Y-62074782D01*
X48875671Y-62074589D01*
X48882416Y-62074785D01*
G37*
G36*
X48003369Y-52807038D02*
G01*
X48030933Y-52809101D01*
X48058262Y-52812509D01*
X48085310Y-52817243D01*
X48112030Y-52823284D01*
X48138378Y-52830613D01*
X48164307Y-52839211D01*
X48189771Y-52849058D01*
X48214724Y-52860137D01*
X48239120Y-52872426D01*
X48262914Y-52885908D01*
X48286059Y-52900564D01*
X48308510Y-52916374D01*
X48330220Y-52933319D01*
X48351143Y-52951381D01*
X48371234Y-52970539D01*
X48390350Y-52990670D01*
X48408368Y-53011631D01*
X48425267Y-53033377D01*
X48441030Y-53055860D01*
X48455637Y-53079036D01*
X48469069Y-53102858D01*
X48481307Y-53127280D01*
X48492333Y-53152256D01*
X48502126Y-53177741D01*
X48510669Y-53203688D01*
X48517943Y-53230051D01*
X48523928Y-53256784D01*
X48528605Y-53283842D01*
X48531955Y-53311177D01*
X48533960Y-53338746D01*
X48534601Y-53366500D01*
X48534601Y-54182134D01*
X48533862Y-54210895D01*
X48531693Y-54239278D01*
X48528129Y-54267248D01*
X48523205Y-54294770D01*
X48516956Y-54321810D01*
X48509417Y-54348331D01*
X48500624Y-54374299D01*
X48490611Y-54399679D01*
X48479413Y-54424435D01*
X48467065Y-54448534D01*
X48453603Y-54471938D01*
X48439062Y-54494614D01*
X48423477Y-54516527D01*
X48406882Y-54537641D01*
X48389313Y-54557920D01*
X48370806Y-54577331D01*
X48351394Y-54595838D01*
X48331114Y-54613406D01*
X48310000Y-54630000D01*
X48288087Y-54645584D01*
X48265411Y-54660125D01*
X48242007Y-54673585D01*
X48217909Y-54685931D01*
X48193152Y-54697128D01*
X48167773Y-54707140D01*
X48141806Y-54715932D01*
X48115285Y-54723469D01*
X48088247Y-54729717D01*
X48060726Y-54734639D01*
X48032757Y-54738201D01*
X48004375Y-54740368D01*
X47975616Y-54741105D01*
X47946856Y-54740367D01*
X47918473Y-54738200D01*
X47890503Y-54734637D01*
X47862980Y-54729714D01*
X47835941Y-54723465D01*
X47809420Y-54715927D01*
X47783451Y-54707135D01*
X47758071Y-54697122D01*
X47733315Y-54685925D01*
X47709216Y-54673578D01*
X47685811Y-54660117D01*
X47663135Y-54645576D01*
X47641222Y-54629991D01*
X47620108Y-54613397D01*
X47599828Y-54595829D01*
X47580417Y-54577321D01*
X47561909Y-54557910D01*
X47544341Y-54537629D01*
X47527747Y-54516515D01*
X47512162Y-54494603D01*
X47497621Y-54471926D01*
X47484160Y-54448521D01*
X47471813Y-54424423D01*
X47460616Y-54399666D01*
X47450603Y-54374286D01*
X47441810Y-54348318D01*
X47434272Y-54321796D01*
X47428024Y-54294757D01*
X47423101Y-54267234D01*
X47419538Y-54239264D01*
X47417370Y-54210881D01*
X47416632Y-54182121D01*
X47416632Y-53366294D01*
X47417283Y-53338540D01*
X47419298Y-53310973D01*
X47422659Y-53283638D01*
X47427346Y-53256582D01*
X47433341Y-53229851D01*
X47440624Y-53203491D01*
X47449176Y-53177547D01*
X47458980Y-53152066D01*
X47470015Y-53127094D01*
X47482262Y-53102677D01*
X47495703Y-53078860D01*
X47510319Y-53055689D01*
X47526090Y-53033211D01*
X47542998Y-53011472D01*
X47561023Y-52990517D01*
X47580148Y-52970393D01*
X47600246Y-52951241D01*
X47621176Y-52933187D01*
X47642891Y-52916250D01*
X47665346Y-52900448D01*
X47688493Y-52885801D01*
X47712287Y-52872328D01*
X47736681Y-52860047D01*
X47761630Y-52848978D01*
X47787086Y-52839140D01*
X47813004Y-52830552D01*
X47839338Y-52823233D01*
X47866040Y-52817202D01*
X47893065Y-52812478D01*
X47920367Y-52809080D01*
X47947900Y-52807028D01*
X47975616Y-52806339D01*
X48003369Y-52807038D01*
G37*
D10*
X66937741Y-48748460D02*
X65680288Y-48372564D01*
X65269784Y-48124498D02*
X64352268Y-47186070D01*
X64113515Y-46770080D02*
X63766049Y-45504477D01*
X63758926Y-45024894D02*
X64068655Y-43749530D01*
X64294950Y-43326634D02*
X65184193Y-42361372D01*
X65587149Y-42101225D02*
X66832885Y-41688154D01*
D11*
G36*
X82545507Y-82043755D02*
G01*
X82573890Y-82045923D01*
X82601860Y-82049486D01*
X82629383Y-82054409D01*
X82656422Y-82060658D01*
X82682944Y-82068196D01*
X82708912Y-82076989D01*
X82734292Y-82087001D01*
X82759048Y-82098198D01*
X82783147Y-82110545D01*
X82806552Y-82124006D01*
X82829228Y-82138547D01*
X82851141Y-82154132D01*
X82872255Y-82170726D01*
X82892535Y-82188295D01*
X82911946Y-82206802D01*
X82930454Y-82226213D01*
X82948022Y-82246494D01*
X82964616Y-82267608D01*
X82980201Y-82289520D01*
X82994742Y-82312197D01*
X83008203Y-82335602D01*
X83020550Y-82359700D01*
X83031747Y-82384457D01*
X83041760Y-82409837D01*
X83050553Y-82435805D01*
X83058091Y-82462326D01*
X83064339Y-82489366D01*
X83069262Y-82516888D01*
X83072825Y-82544858D01*
X83074993Y-82573241D01*
X83075731Y-82602002D01*
X83075731Y-85807094D01*
X83074992Y-85835854D01*
X83072824Y-85864237D01*
X83069260Y-85892207D01*
X83064336Y-85919730D01*
X83058087Y-85946769D01*
X83050548Y-85973290D01*
X83041754Y-85999258D01*
X83031741Y-86024638D01*
X83020543Y-86049395D01*
X83008195Y-86073493D01*
X82994734Y-86096897D01*
X82980192Y-86119574D01*
X82964607Y-86141486D01*
X82948012Y-86162600D01*
X82930444Y-86182880D01*
X82911936Y-86202291D01*
X82892525Y-86220798D01*
X82872244Y-86238366D01*
X82851130Y-86254959D01*
X82829218Y-86270544D01*
X82806541Y-86285084D01*
X82783137Y-86298545D01*
X82759039Y-86310891D01*
X82734283Y-86322087D01*
X82708903Y-86332099D01*
X82682936Y-86340891D01*
X82656416Y-86348429D01*
X82629377Y-86354676D01*
X82601856Y-86359598D01*
X82573887Y-86363160D01*
X82545506Y-86365327D01*
X82516747Y-86366064D01*
X82487986Y-86365327D01*
X82459603Y-86363159D01*
X82431632Y-86359596D01*
X82404110Y-86354673D01*
X82377070Y-86348425D01*
X82350549Y-86340887D01*
X82324580Y-86332094D01*
X82299200Y-86322082D01*
X82274443Y-86310885D01*
X82250344Y-86298538D01*
X82226939Y-86285077D01*
X82204263Y-86270537D01*
X82182350Y-86254952D01*
X82161236Y-86238358D01*
X82140955Y-86220789D01*
X82121544Y-86202282D01*
X82103036Y-86182871D01*
X82085468Y-86162591D01*
X82068874Y-86141477D01*
X82053288Y-86119564D01*
X82038748Y-86096887D01*
X82025286Y-86073482D01*
X82012939Y-86049384D01*
X82001742Y-86024627D01*
X81991729Y-85999247D01*
X81982936Y-85973279D01*
X81975398Y-85946757D01*
X81969150Y-85919717D01*
X81964227Y-85892195D01*
X81960663Y-85864224D01*
X81958495Y-85835841D01*
X81957758Y-85807080D01*
X81957758Y-82601993D01*
X81958496Y-82573231D01*
X81960664Y-82544848D01*
X81964228Y-82516878D01*
X81969152Y-82489355D01*
X81975401Y-82462316D01*
X81982939Y-82435794D01*
X81991733Y-82409826D01*
X82001746Y-82384446D01*
X82012944Y-82359689D01*
X82025291Y-82335591D01*
X82038753Y-82312186D01*
X82053294Y-82289510D01*
X82068880Y-82267597D01*
X82085474Y-82246483D01*
X82103043Y-82226203D01*
X82121551Y-82206792D01*
X82140962Y-82188285D01*
X82161243Y-82170717D01*
X82182357Y-82154124D01*
X82204270Y-82138539D01*
X82226947Y-82123999D01*
X82250351Y-82110538D01*
X82274450Y-82098192D01*
X82299206Y-82086995D01*
X82324586Y-82076983D01*
X82350554Y-82068191D01*
X82377075Y-82060654D01*
X82404114Y-82054406D01*
X82431635Y-82049484D01*
X82459605Y-82045921D01*
X82487987Y-82043754D01*
X82516747Y-82043017D01*
X82545507Y-82043755D01*
G37*
G36*
X53228594Y-57235588D02*
G01*
X53256977Y-57237756D01*
X53284947Y-57241319D01*
X53312469Y-57246242D01*
X53339509Y-57252491D01*
X53366030Y-57260029D01*
X53391998Y-57268822D01*
X53417378Y-57278834D01*
X53442135Y-57290031D01*
X53466233Y-57302378D01*
X53489638Y-57315840D01*
X53512315Y-57330380D01*
X53534228Y-57345965D01*
X53555342Y-57362559D01*
X53575622Y-57380128D01*
X53595033Y-57398635D01*
X53613541Y-57418046D01*
X53631109Y-57438327D01*
X53647703Y-57459441D01*
X53663288Y-57481353D01*
X53677829Y-57504030D01*
X53691290Y-57527435D01*
X53703637Y-57551533D01*
X53714834Y-57576290D01*
X53724847Y-57601670D01*
X53733640Y-57627638D01*
X53741178Y-57654159D01*
X53747426Y-57681199D01*
X53752349Y-57708721D01*
X53755912Y-57736691D01*
X53758080Y-57765074D01*
X53758817Y-57793835D01*
X53758817Y-58610650D01*
X53758079Y-58639411D01*
X53755910Y-58667793D01*
X53752346Y-58695764D01*
X53747422Y-58723286D01*
X53741174Y-58750325D01*
X53733635Y-58776846D01*
X53724841Y-58802814D01*
X53714828Y-58828194D01*
X53703630Y-58852950D01*
X53691283Y-58877048D01*
X53677821Y-58900453D01*
X53663280Y-58923129D01*
X53647694Y-58945041D01*
X53631099Y-58966154D01*
X53613531Y-58986434D01*
X53595023Y-59005845D01*
X53575612Y-59024352D01*
X53555331Y-59041920D01*
X53534217Y-59058513D01*
X53512304Y-59074098D01*
X53489628Y-59088638D01*
X53466224Y-59102098D01*
X53442126Y-59114444D01*
X53417369Y-59125641D01*
X53391990Y-59135653D01*
X53366022Y-59144445D01*
X53339502Y-59151982D01*
X53312463Y-59158230D01*
X53284942Y-59163152D01*
X53256973Y-59166714D01*
X53228592Y-59168881D01*
X53199833Y-59169618D01*
X53171072Y-59168881D01*
X53142689Y-59166713D01*
X53114719Y-59163149D01*
X53087197Y-59158226D01*
X53060157Y-59151978D01*
X53033636Y-59144440D01*
X53007668Y-59135647D01*
X52982287Y-59125634D01*
X52957531Y-59114437D01*
X52933432Y-59102090D01*
X52910027Y-59088629D01*
X52887351Y-59074088D01*
X52865438Y-59058503D01*
X52844324Y-59041909D01*
X52824044Y-59024341D01*
X52804632Y-59005834D01*
X52786125Y-58986422D01*
X52768557Y-58966142D01*
X52751962Y-58945028D01*
X52736377Y-58923115D01*
X52721837Y-58900439D01*
X52708375Y-58877034D01*
X52696029Y-58852936D01*
X52684831Y-58828179D01*
X52674819Y-58802799D01*
X52666026Y-58776831D01*
X52658488Y-58750309D01*
X52652240Y-58723270D01*
X52647317Y-58695748D01*
X52643754Y-58667778D01*
X52641586Y-58639395D01*
X52640848Y-58610634D01*
X52640848Y-57793819D01*
X52641587Y-57765058D01*
X52643756Y-57736675D01*
X52647319Y-57708705D01*
X52652243Y-57681183D01*
X52658492Y-57654144D01*
X52666031Y-57627623D01*
X52674825Y-57601655D01*
X52684838Y-57576275D01*
X52696036Y-57551518D01*
X52708383Y-57527420D01*
X52721845Y-57504016D01*
X52736386Y-57481340D01*
X52751972Y-57459428D01*
X52768566Y-57438314D01*
X52786135Y-57418034D01*
X52804643Y-57398624D01*
X52824054Y-57380117D01*
X52844335Y-57362549D01*
X52865449Y-57345955D01*
X52887361Y-57330371D01*
X52910038Y-57315831D01*
X52933442Y-57302370D01*
X52957540Y-57290024D01*
X52982296Y-57278828D01*
X53007676Y-57268816D01*
X53033643Y-57260024D01*
X53060164Y-57252487D01*
X53087202Y-57246239D01*
X53114723Y-57241317D01*
X53142692Y-57237754D01*
X53171074Y-57235587D01*
X53199833Y-57234850D01*
X53228594Y-57235588D01*
G37*
G36*
X80804099Y-79642585D02*
G01*
X80832482Y-79644753D01*
X80860452Y-79648317D01*
X80887974Y-79653240D01*
X80915014Y-79659488D01*
X80941535Y-79667026D01*
X80967503Y-79675819D01*
X80992884Y-79685832D01*
X81017640Y-79697029D01*
X81041739Y-79709376D01*
X81065144Y-79722837D01*
X81087820Y-79737378D01*
X81109733Y-79752963D01*
X81130847Y-79769557D01*
X81151127Y-79787125D01*
X81170539Y-79805632D01*
X81189046Y-79825044D01*
X81206614Y-79845324D01*
X81223209Y-79866438D01*
X81238794Y-79888351D01*
X81253334Y-79911027D01*
X81266796Y-79934432D01*
X81279142Y-79958530D01*
X81290340Y-79983287D01*
X81300352Y-80008667D01*
X81309145Y-80034635D01*
X81316683Y-80061157D01*
X81322931Y-80088196D01*
X81327854Y-80115718D01*
X81331417Y-80143688D01*
X81333585Y-80172071D01*
X81334323Y-80200832D01*
X81334323Y-81017647D01*
X81333584Y-81046408D01*
X81331415Y-81074791D01*
X81327852Y-81102761D01*
X81322928Y-81130283D01*
X81316679Y-81157322D01*
X81309140Y-81183843D01*
X81300346Y-81209811D01*
X81290333Y-81235191D01*
X81279135Y-81259948D01*
X81266788Y-81284046D01*
X81253326Y-81307450D01*
X81238785Y-81330126D01*
X81223199Y-81352038D01*
X81206605Y-81373152D01*
X81189036Y-81393432D01*
X81170528Y-81412842D01*
X81151117Y-81431349D01*
X81130836Y-81448917D01*
X81109722Y-81465511D01*
X81087810Y-81481095D01*
X81065133Y-81495635D01*
X81041729Y-81509096D01*
X81017631Y-81521442D01*
X80992875Y-81532638D01*
X80967495Y-81542650D01*
X80941528Y-81551442D01*
X80915007Y-81558979D01*
X80887969Y-81565227D01*
X80860448Y-81570149D01*
X80832479Y-81573712D01*
X80804097Y-81575879D01*
X80775338Y-81576616D01*
X80746577Y-81575878D01*
X80718194Y-81573710D01*
X80690224Y-81570147D01*
X80662702Y-81565224D01*
X80635662Y-81558975D01*
X80609141Y-81551437D01*
X80583173Y-81542644D01*
X80557793Y-81532632D01*
X80533036Y-81521435D01*
X80508938Y-81509088D01*
X80485533Y-81495626D01*
X80462856Y-81481086D01*
X80440943Y-81465501D01*
X80419829Y-81448907D01*
X80399549Y-81431338D01*
X80380138Y-81412831D01*
X80361630Y-81393420D01*
X80344062Y-81373139D01*
X80327468Y-81352025D01*
X80311883Y-81330113D01*
X80297342Y-81307436D01*
X80283881Y-81284031D01*
X80271534Y-81259933D01*
X80260337Y-81235176D01*
X80250324Y-81209796D01*
X80241531Y-81183828D01*
X80233993Y-81157307D01*
X80227745Y-81130267D01*
X80222822Y-81102745D01*
X80219259Y-81074775D01*
X80217091Y-81046392D01*
X80216354Y-81017631D01*
X80216354Y-80200816D01*
X80217092Y-80172055D01*
X80219261Y-80143673D01*
X80222825Y-80115702D01*
X80227749Y-80088180D01*
X80233997Y-80061141D01*
X80241536Y-80034620D01*
X80250330Y-80008652D01*
X80260343Y-79983272D01*
X80271541Y-79958516D01*
X80283888Y-79934418D01*
X80297350Y-79911013D01*
X80311891Y-79888337D01*
X80327477Y-79866425D01*
X80344072Y-79845312D01*
X80361640Y-79825032D01*
X80380148Y-79805621D01*
X80399559Y-79787114D01*
X80419840Y-79769546D01*
X80440954Y-79752953D01*
X80462867Y-79737368D01*
X80485543Y-79722828D01*
X80508947Y-79709368D01*
X80533045Y-79697022D01*
X80557802Y-79685825D01*
X80583181Y-79675813D01*
X80609149Y-79667021D01*
X80635669Y-79659484D01*
X80662708Y-79653236D01*
X80690229Y-79648314D01*
X80718198Y-79644752D01*
X80746579Y-79642585D01*
X80775338Y-79641848D01*
X80804099Y-79642585D01*
G37*
G36*
X46262966Y-55435588D02*
G01*
X46291349Y-55437756D01*
X46319319Y-55441319D01*
X46346842Y-55446242D01*
X46373881Y-55452490D01*
X46400402Y-55460028D01*
X46426371Y-55468821D01*
X46451751Y-55478833D01*
X46476507Y-55490030D01*
X46500606Y-55502377D01*
X46524011Y-55515839D01*
X46546687Y-55530379D01*
X46568600Y-55545964D01*
X46589714Y-55562558D01*
X46609994Y-55580127D01*
X46629405Y-55598634D01*
X46647913Y-55618046D01*
X46665481Y-55638326D01*
X46682075Y-55659440D01*
X46697660Y-55681353D01*
X46712201Y-55704029D01*
X46725662Y-55727434D01*
X46738009Y-55751533D01*
X46749206Y-55776289D01*
X46759219Y-55801669D01*
X46768012Y-55827638D01*
X46775550Y-55854159D01*
X46781798Y-55881199D01*
X46786721Y-55908721D01*
X46790284Y-55936691D01*
X46792452Y-55965074D01*
X46793190Y-55993835D01*
X46793190Y-61268465D01*
X46792451Y-61297225D01*
X46790282Y-61325608D01*
X46786719Y-61353578D01*
X46781794Y-61381101D01*
X46775546Y-61408140D01*
X46768007Y-61434661D01*
X46759213Y-61460629D01*
X46749200Y-61486009D01*
X46738002Y-61510765D01*
X46725654Y-61534863D01*
X46712192Y-61558268D01*
X46697651Y-61580943D01*
X46682066Y-61602856D01*
X46665471Y-61623969D01*
X46647903Y-61644249D01*
X46629395Y-61663660D01*
X46609983Y-61682167D01*
X46589703Y-61699734D01*
X46568589Y-61716328D01*
X46546677Y-61731912D01*
X46524000Y-61746452D01*
X46500596Y-61759913D01*
X46476498Y-61772259D01*
X46451742Y-61783456D01*
X46426362Y-61793467D01*
X46400395Y-61802260D01*
X46373874Y-61809797D01*
X46346836Y-61816044D01*
X46319315Y-61820967D01*
X46291346Y-61824529D01*
X46262965Y-61826696D01*
X46234206Y-61827433D01*
X46205445Y-61826695D01*
X46177062Y-61824527D01*
X46149092Y-61820964D01*
X46121569Y-61816041D01*
X46094530Y-61809793D01*
X46068009Y-61802255D01*
X46042041Y-61793462D01*
X46016661Y-61783449D01*
X45991904Y-61772252D01*
X45967805Y-61759905D01*
X45944401Y-61746444D01*
X45921724Y-61731903D01*
X45899811Y-61716318D01*
X45878697Y-61699724D01*
X45858417Y-61682156D01*
X45839006Y-61663648D01*
X45820499Y-61644237D01*
X45802930Y-61623957D01*
X45786336Y-61602843D01*
X45770751Y-61580930D01*
X45756210Y-61558254D01*
X45742749Y-61534849D01*
X45730402Y-61510750D01*
X45719205Y-61485994D01*
X45709192Y-61460614D01*
X45700400Y-61434646D01*
X45692861Y-61408124D01*
X45686613Y-61381085D01*
X45681690Y-61353563D01*
X45678127Y-61325592D01*
X45675959Y-61297209D01*
X45675221Y-61268449D01*
X45675221Y-55993821D01*
X45675960Y-55965060D01*
X45678129Y-55936677D01*
X45681693Y-55908707D01*
X45686617Y-55881185D01*
X45692866Y-55854146D01*
X45700405Y-55827624D01*
X45709198Y-55801656D01*
X45719211Y-55776276D01*
X45730409Y-55751520D01*
X45742757Y-55727422D01*
X45756219Y-55704017D01*
X45770760Y-55681341D01*
X45786345Y-55659428D01*
X45802940Y-55638315D01*
X45820509Y-55618035D01*
X45839016Y-55598624D01*
X45858428Y-55580117D01*
X45878708Y-55562549D01*
X45899822Y-55545955D01*
X45921735Y-55530371D01*
X45944411Y-55515831D01*
X45967815Y-55502370D01*
X45991913Y-55490024D01*
X46016670Y-55478827D01*
X46042049Y-55468815D01*
X46068016Y-55460023D01*
X46094537Y-55452486D01*
X46121575Y-55446239D01*
X46149096Y-55441316D01*
X46177065Y-55437754D01*
X46205447Y-55435587D01*
X46234206Y-55434850D01*
X46262966Y-55435588D01*
G37*
D10*
X67310000Y-41656000D02*
X67310000Y-41148000D01*
D11*
G36*
X89511130Y-74380862D02*
G01*
X89539513Y-74383030D01*
X89567484Y-74386593D01*
X89595006Y-74391516D01*
X89622046Y-74397765D01*
X89648567Y-74405303D01*
X89674536Y-74414096D01*
X89699916Y-74424108D01*
X89724673Y-74435306D01*
X89748771Y-74447652D01*
X89772176Y-74461114D01*
X89794852Y-74475654D01*
X89816765Y-74491240D01*
X89837879Y-74507834D01*
X89858159Y-74525402D01*
X89877571Y-74543910D01*
X89896078Y-74563321D01*
X89913646Y-74583601D01*
X89930241Y-74604716D01*
X89945826Y-74626629D01*
X89960366Y-74649305D01*
X89973827Y-74672710D01*
X89986174Y-74696809D01*
X89997371Y-74721566D01*
X90007384Y-74746946D01*
X90016176Y-74772914D01*
X90023714Y-74799436D01*
X90029962Y-74826476D01*
X90034885Y-74853998D01*
X90038448Y-74881969D01*
X90040616Y-74910352D01*
X90041354Y-74939113D01*
X90041354Y-83170379D01*
X90040712Y-83198134D01*
X90038707Y-83225702D01*
X90035355Y-83253037D01*
X90030677Y-83280095D01*
X90024691Y-83306828D01*
X90017417Y-83333190D01*
X90008873Y-83359137D01*
X89999079Y-83384621D01*
X89988052Y-83409597D01*
X89975813Y-83434018D01*
X89962380Y-83457840D01*
X89947773Y-83481015D01*
X89932009Y-83503498D01*
X89915109Y-83525244D01*
X89897091Y-83546205D01*
X89877973Y-83566336D01*
X89857882Y-83585494D01*
X89836957Y-83603555D01*
X89815247Y-83620500D01*
X89792796Y-83636309D01*
X89769651Y-83650964D01*
X89745858Y-83664446D01*
X89721462Y-83676734D01*
X89696509Y-83687811D01*
X89671046Y-83697658D01*
X89645118Y-83706254D01*
X89618772Y-83713582D01*
X89592053Y-83719622D01*
X89565007Y-83724355D01*
X89537681Y-83727762D01*
X89510120Y-83729824D01*
X89482369Y-83730522D01*
X89454616Y-83729823D01*
X89427053Y-83727760D01*
X89399724Y-83724352D01*
X89372676Y-83719618D01*
X89345956Y-83713577D01*
X89319608Y-83706248D01*
X89293680Y-83697650D01*
X89268216Y-83687803D01*
X89243263Y-83676725D01*
X89218867Y-83664435D01*
X89195073Y-83650953D01*
X89171929Y-83636297D01*
X89149478Y-83620487D01*
X89127768Y-83603542D01*
X89106845Y-83585481D01*
X89086754Y-83566322D01*
X89067638Y-83546191D01*
X89049620Y-83525230D01*
X89032720Y-83503485D01*
X89016958Y-83481001D01*
X89002351Y-83457826D01*
X88988918Y-83434005D01*
X88976680Y-83409583D01*
X88965654Y-83384607D01*
X88955860Y-83359123D01*
X88947317Y-83333177D01*
X88940044Y-83306814D01*
X88934059Y-83280081D01*
X88929381Y-83253024D01*
X88926031Y-83225688D01*
X88924026Y-83198120D01*
X88923385Y-83170366D01*
X88923385Y-74938903D01*
X88924133Y-74910142D01*
X88926312Y-74881760D01*
X88929885Y-74853791D01*
X88934818Y-74826270D01*
X88941076Y-74799233D01*
X88948624Y-74772714D01*
X88957425Y-74746749D01*
X88967446Y-74721373D01*
X88978652Y-74696620D01*
X88991006Y-74672526D01*
X89004473Y-74649126D01*
X89019020Y-74626455D01*
X89034610Y-74604548D01*
X89051209Y-74583440D01*
X89068781Y-74563166D01*
X89087291Y-74543761D01*
X89106704Y-74525261D01*
X89126985Y-74507700D01*
X89148098Y-74491114D01*
X89170010Y-74475537D01*
X89192683Y-74461005D01*
X89216085Y-74447552D01*
X89240178Y-74435214D01*
X89264928Y-74424026D01*
X89290301Y-74414023D01*
X89316260Y-74405240D01*
X89342770Y-74397712D01*
X89369798Y-74391474D01*
X89397306Y-74386561D01*
X89425261Y-74383009D01*
X89453627Y-74380851D01*
X89482369Y-74380124D01*
X89511130Y-74380862D01*
G37*
G36*
X84286911Y-78769536D02*
G01*
X84315294Y-78771704D01*
X84343264Y-78775267D01*
X84370787Y-78780191D01*
X84397826Y-78786439D01*
X84424347Y-78793977D01*
X84450316Y-78802770D01*
X84475696Y-78812782D01*
X84500452Y-78823980D01*
X84524551Y-78836326D01*
X84547956Y-78849788D01*
X84570632Y-78864328D01*
X84592545Y-78879913D01*
X84613659Y-78896508D01*
X84633939Y-78914076D01*
X84653350Y-78932583D01*
X84671858Y-78951995D01*
X84689426Y-78972275D01*
X84706020Y-78993389D01*
X84721605Y-79015302D01*
X84736146Y-79037978D01*
X84749607Y-79061383D01*
X84761954Y-79085481D01*
X84773151Y-79110238D01*
X84783164Y-79135618D01*
X84791957Y-79161586D01*
X84799495Y-79188107D01*
X84805743Y-79215147D01*
X84810666Y-79242669D01*
X84814229Y-79270639D01*
X84816397Y-79299022D01*
X84817135Y-79327783D01*
X84817135Y-86739911D01*
X84816494Y-86767665D01*
X84814488Y-86795233D01*
X84811136Y-86822569D01*
X84806458Y-86849626D01*
X84800473Y-86876359D01*
X84793198Y-86902722D01*
X84784655Y-86928668D01*
X84774860Y-86954152D01*
X84763834Y-86979128D01*
X84751595Y-87003550D01*
X84738162Y-87027371D01*
X84723554Y-87050546D01*
X84707791Y-87073030D01*
X84690890Y-87094775D01*
X84672872Y-87115736D01*
X84653755Y-87135867D01*
X84633663Y-87155025D01*
X84612739Y-87173087D01*
X84591028Y-87190031D01*
X84568578Y-87205841D01*
X84545433Y-87220496D01*
X84521639Y-87233977D01*
X84497243Y-87246266D01*
X84472290Y-87257343D01*
X84446827Y-87267189D01*
X84420900Y-87275786D01*
X84394553Y-87283113D01*
X84367834Y-87289153D01*
X84340789Y-87293886D01*
X84313462Y-87297293D01*
X84285901Y-87299355D01*
X84258151Y-87300053D01*
X84230398Y-87299354D01*
X84202834Y-87297291D01*
X84175505Y-87293883D01*
X84148458Y-87289149D01*
X84121737Y-87283108D01*
X84095390Y-87275779D01*
X84069461Y-87267182D01*
X84043997Y-87257334D01*
X84019044Y-87246256D01*
X83994648Y-87233966D01*
X83970855Y-87220484D01*
X83947710Y-87205828D01*
X83925260Y-87190018D01*
X83903550Y-87173073D01*
X83882626Y-87155012D01*
X83862535Y-87135853D01*
X83843419Y-87115722D01*
X83825401Y-87094761D01*
X83808502Y-87073016D01*
X83792739Y-87050533D01*
X83778132Y-87027357D01*
X83764700Y-87003536D01*
X83752461Y-86979114D01*
X83741436Y-86954138D01*
X83731642Y-86928654D01*
X83723098Y-86902708D01*
X83715825Y-86876345D01*
X83709840Y-86849612D01*
X83705163Y-86822555D01*
X83701812Y-86795219D01*
X83699807Y-86767651D01*
X83699166Y-86739897D01*
X83699166Y-79327767D01*
X83699905Y-79299006D01*
X83702074Y-79270623D01*
X83705638Y-79242653D01*
X83710562Y-79215131D01*
X83716811Y-79188092D01*
X83724350Y-79161571D01*
X83733143Y-79135603D01*
X83743157Y-79110223D01*
X83754354Y-79085467D01*
X83766702Y-79061369D01*
X83780164Y-79037964D01*
X83794705Y-79015288D01*
X83810290Y-78993376D01*
X83826885Y-78972262D01*
X83844454Y-78951983D01*
X83862961Y-78932572D01*
X83882373Y-78914065D01*
X83902653Y-78896497D01*
X83923767Y-78879904D01*
X83945680Y-78864319D01*
X83968356Y-78849779D01*
X83991760Y-78836319D01*
X84015858Y-78823973D01*
X84040615Y-78812776D01*
X84065994Y-78802764D01*
X84091961Y-78793972D01*
X84118482Y-78786435D01*
X84145520Y-78780187D01*
X84173041Y-78775265D01*
X84201010Y-78771703D01*
X84229392Y-78769535D01*
X84258151Y-78768799D01*
X84286911Y-78769536D01*
G37*
G36*
X47970393Y-56804340D02*
G01*
X47998776Y-56806508D01*
X48026746Y-56810072D01*
X48054268Y-56814995D01*
X48081308Y-56821243D01*
X48107829Y-56828781D01*
X48133797Y-56837574D01*
X48159177Y-56847586D01*
X48183934Y-56858784D01*
X48208032Y-56871131D01*
X48231437Y-56884592D01*
X48254113Y-56899132D01*
X48276026Y-56914717D01*
X48297140Y-56931312D01*
X48317420Y-56948880D01*
X48336832Y-56967387D01*
X48355339Y-56986799D01*
X48372907Y-57007079D01*
X48389502Y-57028193D01*
X48405087Y-57050106D01*
X48419627Y-57072782D01*
X48433089Y-57096187D01*
X48445435Y-57120285D01*
X48456633Y-57145042D01*
X48466645Y-57170422D01*
X48475438Y-57196390D01*
X48482976Y-57222912D01*
X48489224Y-57249951D01*
X48494148Y-57277473D01*
X48497711Y-57305443D01*
X48499879Y-57333826D01*
X48500616Y-57362587D01*
X48500616Y-58609480D01*
X48499878Y-58638241D01*
X48497709Y-58666624D01*
X48494145Y-58694594D01*
X48489221Y-58722116D01*
X48482972Y-58749155D01*
X48475433Y-58775676D01*
X48466639Y-58801644D01*
X48456626Y-58827024D01*
X48445428Y-58851781D01*
X48433081Y-58875879D01*
X48419619Y-58899283D01*
X48405078Y-58921959D01*
X48389492Y-58943871D01*
X48372898Y-58964985D01*
X48355329Y-58985265D01*
X48336821Y-59004675D01*
X48317410Y-59023182D01*
X48297130Y-59040750D01*
X48276016Y-59057344D01*
X48254103Y-59072928D01*
X48231427Y-59087468D01*
X48208022Y-59100929D01*
X48183924Y-59113275D01*
X48159168Y-59124471D01*
X48133789Y-59134483D01*
X48107821Y-59143275D01*
X48081301Y-59150813D01*
X48054263Y-59157060D01*
X48026741Y-59161982D01*
X47998773Y-59165545D01*
X47970391Y-59167712D01*
X47941632Y-59168449D01*
X47913878Y-59167808D01*
X47886309Y-59165803D01*
X47858974Y-59162453D01*
X47831916Y-59157775D01*
X47805183Y-59151791D01*
X47778820Y-59144517D01*
X47752874Y-59135974D01*
X47727389Y-59126181D01*
X47702413Y-59115155D01*
X47677991Y-59102917D01*
X47654169Y-59089485D01*
X47630993Y-59074878D01*
X47608510Y-59059115D01*
X47586764Y-59042216D01*
X47565803Y-59024198D01*
X47545671Y-59005082D01*
X47526512Y-58984991D01*
X47508450Y-58964067D01*
X47491505Y-58942358D01*
X47475695Y-58919907D01*
X47461039Y-58896762D01*
X47447557Y-58872968D01*
X47435267Y-58848572D01*
X47424189Y-58823619D01*
X47414342Y-58798155D01*
X47405744Y-58772226D01*
X47398416Y-58745878D01*
X47392375Y-58719158D01*
X47387641Y-58692110D01*
X47384233Y-58664781D01*
X47382170Y-58637217D01*
X47381471Y-58609464D01*
X47381471Y-57362587D01*
X47382170Y-57334834D01*
X47384233Y-57307270D01*
X47387641Y-57279942D01*
X47392375Y-57252894D01*
X47398416Y-57226174D01*
X47405744Y-57199827D01*
X47414342Y-57173898D01*
X47424189Y-57148435D01*
X47435267Y-57123482D01*
X47447557Y-57099086D01*
X47461039Y-57075292D01*
X47475695Y-57052147D01*
X47491505Y-57029697D01*
X47508450Y-57007987D01*
X47526512Y-56987063D01*
X47545671Y-56966972D01*
X47565803Y-56947855D01*
X47586764Y-56929837D01*
X47608510Y-56912937D01*
X47630993Y-56897174D01*
X47654169Y-56882567D01*
X47677991Y-56869135D01*
X47702413Y-56856897D01*
X47727389Y-56845871D01*
X47752874Y-56836077D01*
X47778820Y-56827534D01*
X47805183Y-56820261D01*
X47831916Y-56814276D01*
X47858974Y-56809599D01*
X47886309Y-56806248D01*
X47913878Y-56804243D01*
X47941632Y-56803603D01*
X47970393Y-56804340D01*
G37*
G36*
X87769726Y-76984771D02*
G01*
X87798109Y-76986939D01*
X87826079Y-76990502D01*
X87853602Y-76995425D01*
X87880641Y-77001673D01*
X87907162Y-77009211D01*
X87933130Y-77018004D01*
X87958510Y-77028017D01*
X87983267Y-77039214D01*
X88007366Y-77051561D01*
X88030770Y-77065022D01*
X88053447Y-77079563D01*
X88075360Y-77095148D01*
X88096474Y-77111742D01*
X88116754Y-77129310D01*
X88136165Y-77147818D01*
X88154672Y-77167229D01*
X88172241Y-77187509D01*
X88188835Y-77208623D01*
X88204420Y-77230536D01*
X88218961Y-77253212D01*
X88232422Y-77276617D01*
X88244769Y-77300716D01*
X88255966Y-77325472D01*
X88265979Y-77350852D01*
X88274771Y-77376820D01*
X88282310Y-77403342D01*
X88288558Y-77430381D01*
X88293481Y-77457903D01*
X88297044Y-77485874D01*
X88299212Y-77514257D01*
X88299950Y-77543017D01*
X88299950Y-82817645D01*
X88299211Y-82846406D01*
X88297042Y-82874789D01*
X88293478Y-82902759D01*
X88288554Y-82930281D01*
X88282305Y-82957320D01*
X88274766Y-82983842D01*
X88265973Y-83009810D01*
X88255960Y-83035190D01*
X88244762Y-83059946D01*
X88232414Y-83084044D01*
X88218952Y-83107449D01*
X88204411Y-83130125D01*
X88188826Y-83152038D01*
X88172231Y-83173151D01*
X88154662Y-83193431D01*
X88136155Y-83212842D01*
X88116743Y-83231349D01*
X88096463Y-83248917D01*
X88075349Y-83265511D01*
X88053436Y-83281095D01*
X88030760Y-83295635D01*
X88007356Y-83309096D01*
X87983258Y-83321442D01*
X87958501Y-83332639D01*
X87933122Y-83342651D01*
X87907155Y-83351443D01*
X87880634Y-83358980D01*
X87853596Y-83365227D01*
X87826075Y-83370150D01*
X87798106Y-83373712D01*
X87769724Y-83375879D01*
X87740965Y-83376616D01*
X87712205Y-83375878D01*
X87683822Y-83373710D01*
X87655852Y-83370147D01*
X87628329Y-83365224D01*
X87601290Y-83358976D01*
X87574769Y-83351438D01*
X87548800Y-83342645D01*
X87523420Y-83332633D01*
X87498664Y-83321436D01*
X87474565Y-83309089D01*
X87451160Y-83295627D01*
X87428484Y-83281087D01*
X87406571Y-83265502D01*
X87385457Y-83248908D01*
X87365177Y-83231339D01*
X87345766Y-83212832D01*
X87327258Y-83193420D01*
X87309690Y-83173140D01*
X87293096Y-83152026D01*
X87277511Y-83130113D01*
X87262970Y-83107437D01*
X87249509Y-83084032D01*
X87237162Y-83059933D01*
X87225965Y-83035177D01*
X87215952Y-83009797D01*
X87207159Y-82983828D01*
X87199621Y-82957307D01*
X87193373Y-82930267D01*
X87188450Y-82902745D01*
X87184887Y-82874775D01*
X87182719Y-82846392D01*
X87181981Y-82817631D01*
X87181981Y-77543001D01*
X87182720Y-77514241D01*
X87184889Y-77485858D01*
X87188452Y-77457888D01*
X87193377Y-77430365D01*
X87199625Y-77403326D01*
X87207164Y-77376805D01*
X87215958Y-77350837D01*
X87225971Y-77325457D01*
X87237169Y-77300701D01*
X87249517Y-77276603D01*
X87262979Y-77253198D01*
X87277520Y-77230523D01*
X87293105Y-77208610D01*
X87309700Y-77187497D01*
X87327268Y-77167217D01*
X87345776Y-77147806D01*
X87365188Y-77129299D01*
X87385468Y-77111732D01*
X87406582Y-77095138D01*
X87428494Y-77079554D01*
X87451171Y-77065014D01*
X87474575Y-77051553D01*
X87498673Y-77039207D01*
X87523429Y-77028010D01*
X87548809Y-77017999D01*
X87574776Y-77009206D01*
X87601297Y-77001669D01*
X87628335Y-76995422D01*
X87655856Y-76990499D01*
X87683825Y-76986937D01*
X87712206Y-76984770D01*
X87740965Y-76984033D01*
X87769726Y-76984771D01*
G37*
G36*
X49744773Y-51512112D02*
G01*
X49772337Y-51514175D01*
X49799666Y-51517583D01*
X49826713Y-51522317D01*
X49853434Y-51528358D01*
X49879781Y-51535687D01*
X49905710Y-51544284D01*
X49931174Y-51554132D01*
X49956127Y-51565210D01*
X49980523Y-51577500D01*
X50004316Y-51590982D01*
X50027461Y-51605638D01*
X50049911Y-51621448D01*
X50071621Y-51638393D01*
X50092545Y-51656454D01*
X50112636Y-51675613D01*
X50131752Y-51695744D01*
X50149770Y-51716705D01*
X50166669Y-51738450D01*
X50182432Y-51760933D01*
X50197039Y-51784109D01*
X50210471Y-51807930D01*
X50222710Y-51832352D01*
X50233735Y-51857328D01*
X50243529Y-51882812D01*
X50252073Y-51908758D01*
X50259346Y-51935121D01*
X50265331Y-51961854D01*
X50270008Y-51988911D01*
X50273359Y-52016247D01*
X50275364Y-52043815D01*
X50276005Y-52071569D01*
X50276005Y-59483699D01*
X50275266Y-59512460D01*
X50273097Y-59540843D01*
X50269533Y-59568813D01*
X50264609Y-59596335D01*
X50258360Y-59623374D01*
X50250821Y-59649895D01*
X50242028Y-59675863D01*
X50232014Y-59701243D01*
X50220817Y-59725999D01*
X50208469Y-59750097D01*
X50195007Y-59773502D01*
X50180466Y-59796178D01*
X50164881Y-59818090D01*
X50148286Y-59839204D01*
X50130717Y-59859483D01*
X50112210Y-59878894D01*
X50092798Y-59897401D01*
X50072518Y-59914969D01*
X50051404Y-59931562D01*
X50029491Y-59947147D01*
X50006815Y-59961687D01*
X49983411Y-59975147D01*
X49959313Y-59987493D01*
X49934556Y-59998690D01*
X49909177Y-60008702D01*
X49883210Y-60017494D01*
X49856689Y-60025031D01*
X49829651Y-60031279D01*
X49802130Y-60036201D01*
X49774161Y-60039763D01*
X49745779Y-60041931D01*
X49717020Y-60042667D01*
X49688260Y-60041930D01*
X49659877Y-60039762D01*
X49631907Y-60036199D01*
X49604384Y-60031275D01*
X49577345Y-60025027D01*
X49550824Y-60017489D01*
X49524855Y-60008696D01*
X49499475Y-59998684D01*
X49474719Y-59987486D01*
X49450620Y-59975140D01*
X49427215Y-59961678D01*
X49404539Y-59947138D01*
X49382626Y-59931553D01*
X49361512Y-59914958D01*
X49341232Y-59897390D01*
X49321821Y-59878883D01*
X49303313Y-59859471D01*
X49285745Y-59839191D01*
X49269151Y-59818077D01*
X49253566Y-59796164D01*
X49239025Y-59773488D01*
X49225564Y-59750083D01*
X49213217Y-59725985D01*
X49202020Y-59701228D01*
X49192007Y-59675848D01*
X49183214Y-59649880D01*
X49175676Y-59623359D01*
X49169428Y-59596319D01*
X49164505Y-59568797D01*
X49160942Y-59540827D01*
X49158774Y-59512444D01*
X49158036Y-59483683D01*
X49158036Y-52071555D01*
X49158677Y-52043801D01*
X49160683Y-52016233D01*
X49164035Y-51988897D01*
X49168713Y-51961840D01*
X49174698Y-51935107D01*
X49181973Y-51908744D01*
X49190516Y-51882798D01*
X49200311Y-51857314D01*
X49211337Y-51832338D01*
X49223576Y-51807916D01*
X49237009Y-51784095D01*
X49251617Y-51760920D01*
X49267380Y-51738436D01*
X49284281Y-51716691D01*
X49302299Y-51695730D01*
X49321416Y-51675599D01*
X49341508Y-51656441D01*
X49362432Y-51638379D01*
X49384143Y-51621435D01*
X49406593Y-51605625D01*
X49429738Y-51590970D01*
X49453532Y-51577489D01*
X49477928Y-51565200D01*
X49502881Y-51554123D01*
X49528344Y-51544277D01*
X49554271Y-51535680D01*
X49580618Y-51528353D01*
X49607337Y-51522313D01*
X49634382Y-51517580D01*
X49661709Y-51514173D01*
X49689270Y-51512111D01*
X49717020Y-51511413D01*
X49744773Y-51512112D01*
G37*
G36*
X90162920Y-70267808D02*
G01*
X90168807Y-70271675D01*
X90174901Y-70275976D01*
X90181161Y-70280677D01*
X90187544Y-70285749D01*
X90194006Y-70291161D01*
X90200504Y-70296882D01*
X90206997Y-70302881D01*
X90213441Y-70309127D01*
X90219793Y-70315588D01*
X90226011Y-70322235D01*
X90232051Y-70329037D01*
X90237871Y-70335961D01*
X90243429Y-70342979D01*
X90248680Y-70350057D01*
X90253582Y-70357167D01*
X90253594Y-70357169D01*
X90262473Y-70370609D01*
X90270280Y-70384050D01*
X90277019Y-70397490D01*
X90282698Y-70410930D01*
X90287321Y-70424371D01*
X90290896Y-70437811D01*
X90293428Y-70451252D01*
X90294925Y-70464692D01*
X90295391Y-70478132D01*
X90294833Y-70491573D01*
X90293258Y-70505013D01*
X90290671Y-70518454D01*
X90287079Y-70531894D01*
X90282488Y-70545334D01*
X90276904Y-70558775D01*
X90270334Y-70572215D01*
X90109792Y-70776654D01*
X89689399Y-71293780D01*
X88323419Y-72954591D01*
X86798860Y-74804622D01*
X85836396Y-75977889D01*
X85713586Y-76128039D01*
X85600490Y-76264354D01*
X85498581Y-76385251D01*
X85409330Y-76489150D01*
X85334211Y-76574470D01*
X85274694Y-76639629D01*
X85251247Y-76664155D01*
X85232253Y-76683048D01*
X85217895Y-76696110D01*
X85208358Y-76703145D01*
X85201892Y-76706304D01*
X85195096Y-76709438D01*
X85180755Y-76715534D01*
X85165825Y-76721233D01*
X85158293Y-76723872D01*
X85150797Y-76726338D01*
X85143399Y-76728607D01*
X85136160Y-76730653D01*
X85129142Y-76732452D01*
X85122405Y-76733979D01*
X85116011Y-76735210D01*
X85110022Y-76736120D01*
X85104497Y-76736684D01*
X85099500Y-76736877D01*
X85092755Y-76736681D01*
X85085880Y-76736102D01*
X85078889Y-76735150D01*
X85071800Y-76733838D01*
X85064628Y-76732177D01*
X85057389Y-76730178D01*
X85050099Y-76727854D01*
X85042775Y-76725215D01*
X85028089Y-76719042D01*
X85013457Y-76711750D01*
X84999010Y-76703433D01*
X84984876Y-76694183D01*
X84971184Y-76684094D01*
X84958062Y-76673257D01*
X84945640Y-76661765D01*
X84934046Y-76649711D01*
X84923409Y-76637188D01*
X84918490Y-76630779D01*
X84913858Y-76624288D01*
X84909530Y-76617726D01*
X84905522Y-76611104D01*
X84901850Y-76604434D01*
X84898530Y-76597728D01*
X84891185Y-76564671D01*
X84879031Y-76493763D01*
X84843047Y-76256185D01*
X84796075Y-75920571D01*
X84743609Y-75522499D01*
X84692514Y-75128114D01*
X84648870Y-74802513D01*
X84617007Y-74579693D01*
X84606846Y-74517449D01*
X84603445Y-74500479D01*
X84601254Y-74493650D01*
X84567358Y-74505780D01*
X84476105Y-74546422D01*
X84146452Y-74700789D01*
X83073030Y-75214687D01*
X82677701Y-75406015D01*
X82348757Y-75564137D01*
X82081145Y-75691425D01*
X81869812Y-75790251D01*
X81709703Y-75862987D01*
X81595766Y-75912005D01*
X81554533Y-75928360D01*
X81522947Y-75939676D01*
X81500378Y-75946248D01*
X81486192Y-75948372D01*
X81478724Y-75948225D01*
X81471239Y-75947786D01*
X81463747Y-75947059D01*
X81456256Y-75946050D01*
X81448774Y-75944763D01*
X81441309Y-75943203D01*
X81433871Y-75941373D01*
X81426467Y-75939280D01*
X81419106Y-75936928D01*
X81411796Y-75934321D01*
X81397364Y-75928360D01*
X81383239Y-75921436D01*
X81369488Y-75913585D01*
X81356179Y-75904846D01*
X81343378Y-75895253D01*
X81331153Y-75884845D01*
X81325278Y-75879347D01*
X81319572Y-75873659D01*
X81314044Y-75867786D01*
X81308703Y-75861732D01*
X81303555Y-75855502D01*
X81298611Y-75849101D01*
X81293879Y-75842533D01*
X81289366Y-75835802D01*
X81285082Y-75828915D01*
X81281034Y-75821874D01*
X81204297Y-75668808D01*
X81087915Y-75427491D01*
X80797451Y-74810947D01*
X80532105Y-74233933D01*
X80447121Y-74042028D01*
X80414341Y-73958140D01*
X80413704Y-73948842D01*
X80413380Y-73939891D01*
X80413389Y-73931235D01*
X80413747Y-73922827D01*
X80414474Y-73914617D01*
X80415588Y-73906555D01*
X80417107Y-73898591D01*
X80419049Y-73890677D01*
X80421433Y-73882763D01*
X80424277Y-73874799D01*
X80427598Y-73866736D01*
X80431417Y-73858525D01*
X80435750Y-73850116D01*
X80440616Y-73841460D01*
X80446033Y-73832508D01*
X80452020Y-73823209D01*
X80474248Y-73798758D01*
X80519930Y-73765956D01*
X80599957Y-73719220D01*
X80725221Y-73652965D01*
X81155034Y-73439566D01*
X81896509Y-73081090D01*
X83424732Y-72338968D01*
X83554524Y-72275718D01*
X83085589Y-71773943D01*
X82743927Y-71417154D01*
X82606499Y-71273254D01*
X82489212Y-71149952D01*
X82390472Y-71045453D01*
X82347559Y-70999692D01*
X82308685Y-70957957D01*
X82273650Y-70920024D01*
X82242255Y-70885669D01*
X82214302Y-70854665D01*
X82189589Y-70826790D01*
X82167919Y-70801817D01*
X82149091Y-70779523D01*
X82132907Y-70759682D01*
X82119166Y-70742071D01*
X82107671Y-70726463D01*
X82098221Y-70712636D01*
X82090617Y-70700363D01*
X82087445Y-70694740D01*
X82084660Y-70689421D01*
X82082236Y-70684378D01*
X82080150Y-70679584D01*
X82078375Y-70675010D01*
X82076888Y-70670628D01*
X82075663Y-70666411D01*
X82074675Y-70662329D01*
X82073311Y-70654461D01*
X82072598Y-70646800D01*
X82072335Y-70639121D01*
X82072363Y-70622812D01*
X82072510Y-70613722D01*
X82072946Y-70604644D01*
X82073668Y-70595592D01*
X82074670Y-70586576D01*
X82075948Y-70577610D01*
X82077497Y-70568705D01*
X82079313Y-70559875D01*
X82081392Y-70551131D01*
X82083728Y-70542486D01*
X82086317Y-70533952D01*
X82089154Y-70525542D01*
X82092235Y-70517267D01*
X82095555Y-70509141D01*
X82099110Y-70501175D01*
X82102895Y-70493382D01*
X82106905Y-70485775D01*
X82111136Y-70478365D01*
X82115584Y-70471165D01*
X82120243Y-70464188D01*
X82125108Y-70457445D01*
X82130176Y-70450949D01*
X82135442Y-70444713D01*
X82140901Y-70438748D01*
X82146549Y-70433068D01*
X82152381Y-70427684D01*
X82158392Y-70422608D01*
X82164578Y-70417854D01*
X82170934Y-70413434D01*
X82177455Y-70409359D01*
X82184137Y-70405643D01*
X82190976Y-70402297D01*
X82197967Y-70399334D01*
X83469282Y-70359869D01*
X86185475Y-70308149D01*
X88897743Y-70268289D01*
X90157285Y-70264403D01*
X90162920Y-70267808D01*
G37*
G36*
X51487185Y-52446139D02*
G01*
X51515568Y-52448307D01*
X51543539Y-52451870D01*
X51571061Y-52456793D01*
X51598101Y-52463041D01*
X51624622Y-52470579D01*
X51650591Y-52479372D01*
X51675971Y-52489384D01*
X51700728Y-52500581D01*
X51724827Y-52512928D01*
X51748232Y-52526389D01*
X51770908Y-52540929D01*
X51792821Y-52556514D01*
X51813935Y-52573108D01*
X51834216Y-52590677D01*
X51853627Y-52609184D01*
X51872135Y-52628595D01*
X51889703Y-52648875D01*
X51906297Y-52669989D01*
X51921883Y-52691902D01*
X51936423Y-52714579D01*
X51949885Y-52737984D01*
X51962232Y-52762082D01*
X51973429Y-52786839D01*
X51983442Y-52812219D01*
X51992235Y-52838187D01*
X51999773Y-52864709D01*
X52006021Y-52891749D01*
X52010944Y-52919271D01*
X52014508Y-52947242D01*
X52016676Y-52975625D01*
X52017413Y-53004386D01*
X52017413Y-56209473D01*
X52016675Y-56238235D01*
X52014507Y-56266618D01*
X52010943Y-56294588D01*
X52006019Y-56322111D01*
X51999770Y-56349150D01*
X51992232Y-56375672D01*
X51983438Y-56401640D01*
X51973425Y-56427020D01*
X51962227Y-56451777D01*
X51949880Y-56475875D01*
X51936418Y-56499280D01*
X51921877Y-56521956D01*
X51906291Y-56543869D01*
X51889697Y-56564983D01*
X51872128Y-56585263D01*
X51853620Y-56604674D01*
X51834209Y-56623181D01*
X51813928Y-56640749D01*
X51792814Y-56657342D01*
X51770901Y-56672927D01*
X51748224Y-56687467D01*
X51724820Y-56700928D01*
X51700721Y-56713274D01*
X51675965Y-56724471D01*
X51650585Y-56734483D01*
X51624617Y-56743275D01*
X51598096Y-56750812D01*
X51571057Y-56757060D01*
X51543536Y-56761982D01*
X51515566Y-56765545D01*
X51487184Y-56767712D01*
X51458424Y-56768449D01*
X51429664Y-56767711D01*
X51401281Y-56765543D01*
X51373311Y-56761980D01*
X51345788Y-56757057D01*
X51318749Y-56750808D01*
X51292227Y-56743270D01*
X51266259Y-56734477D01*
X51240879Y-56724465D01*
X51216123Y-56713268D01*
X51192024Y-56700921D01*
X51168619Y-56687460D01*
X51145943Y-56672919D01*
X51124030Y-56657334D01*
X51102916Y-56640740D01*
X51082636Y-56623171D01*
X51063225Y-56604664D01*
X51044717Y-56585253D01*
X51027149Y-56564972D01*
X51010555Y-56543858D01*
X50994970Y-56521946D01*
X50980429Y-56499269D01*
X50966968Y-56475864D01*
X50954621Y-56451766D01*
X50943424Y-56427009D01*
X50933411Y-56401629D01*
X50924618Y-56375661D01*
X50917080Y-56349140D01*
X50910832Y-56322100D01*
X50905909Y-56294578D01*
X50902346Y-56266608D01*
X50900178Y-56238225D01*
X50899440Y-56209464D01*
X50899440Y-53004372D01*
X50900179Y-52975612D01*
X50902347Y-52947229D01*
X50905911Y-52919259D01*
X50910835Y-52891736D01*
X50917084Y-52864697D01*
X50924623Y-52838176D01*
X50933417Y-52812208D01*
X50943430Y-52786828D01*
X50954628Y-52762071D01*
X50966976Y-52737973D01*
X50980437Y-52714569D01*
X50994979Y-52691892D01*
X51010564Y-52669980D01*
X51027159Y-52648866D01*
X51044727Y-52628586D01*
X51063235Y-52609175D01*
X51082646Y-52590668D01*
X51102927Y-52573100D01*
X51124041Y-52556507D01*
X51145953Y-52540922D01*
X51168630Y-52526382D01*
X51192034Y-52512921D01*
X51216132Y-52500575D01*
X51240888Y-52489379D01*
X51266268Y-52479367D01*
X51292235Y-52470575D01*
X51318755Y-52463037D01*
X51345794Y-52456790D01*
X51373315Y-52451868D01*
X51401284Y-52448306D01*
X51429665Y-52446139D01*
X51458424Y-52445402D01*
X51487185Y-52446139D01*
G37*
G36*
X44520555Y-55081643D02*
G01*
X44548118Y-55083706D01*
X44575447Y-55087114D01*
X44602495Y-55091848D01*
X44629215Y-55097889D01*
X44655563Y-55105218D01*
X44681491Y-55113816D01*
X44706955Y-55123663D01*
X44731908Y-55134741D01*
X44756304Y-55147031D01*
X44780098Y-55160513D01*
X44803242Y-55175169D01*
X44825693Y-55190979D01*
X44847403Y-55207924D01*
X44868326Y-55225985D01*
X44888417Y-55245144D01*
X44907533Y-55265275D01*
X44925551Y-55286236D01*
X44942451Y-55307981D01*
X44958213Y-55330465D01*
X44972820Y-55353640D01*
X44986253Y-55377461D01*
X44998491Y-55401883D01*
X45009517Y-55426859D01*
X45019311Y-55452343D01*
X45027854Y-55478289D01*
X45035127Y-55504652D01*
X45041112Y-55531385D01*
X45045790Y-55558442D01*
X45049140Y-55585778D01*
X45051145Y-55613346D01*
X45051786Y-55641100D01*
X45051786Y-63872563D01*
X45051038Y-63901324D01*
X45048859Y-63929706D01*
X45045286Y-63957675D01*
X45040353Y-63985196D01*
X45034095Y-64012233D01*
X45026547Y-64038752D01*
X45017746Y-64064717D01*
X45007725Y-64090093D01*
X44996519Y-64114846D01*
X44984165Y-64138940D01*
X44970698Y-64162340D01*
X44956151Y-64185011D01*
X44940561Y-64206918D01*
X44923962Y-64228026D01*
X44906390Y-64248300D01*
X44887880Y-64267705D01*
X44868467Y-64286205D01*
X44848186Y-64303766D01*
X44827073Y-64320352D01*
X44805161Y-64335929D01*
X44782488Y-64350461D01*
X44759086Y-64363914D01*
X44734993Y-64376252D01*
X44710243Y-64387440D01*
X44684870Y-64397443D01*
X44658911Y-64406226D01*
X44632401Y-64413754D01*
X44605373Y-64419992D01*
X44577865Y-64424905D01*
X44549910Y-64428457D01*
X44521544Y-64430615D01*
X44492802Y-64431342D01*
X44464041Y-64430604D01*
X44435658Y-64428436D01*
X44407687Y-64424873D01*
X44380165Y-64419950D01*
X44353125Y-64413701D01*
X44326604Y-64406163D01*
X44300635Y-64397370D01*
X44275255Y-64387358D01*
X44250498Y-64376160D01*
X44226400Y-64363814D01*
X44202995Y-64350352D01*
X44180319Y-64335812D01*
X44158406Y-64320226D01*
X44137292Y-64303632D01*
X44117012Y-64286064D01*
X44097600Y-64267556D01*
X44079093Y-64248145D01*
X44061525Y-64227865D01*
X44044930Y-64206750D01*
X44029345Y-64184837D01*
X44014805Y-64162161D01*
X44001344Y-64138756D01*
X43988997Y-64114657D01*
X43977800Y-64089900D01*
X43967787Y-64064520D01*
X43958995Y-64038552D01*
X43951457Y-64012030D01*
X43945209Y-63984990D01*
X43940286Y-63957468D01*
X43936723Y-63929497D01*
X43934555Y-63901114D01*
X43933817Y-63872353D01*
X43933817Y-55641087D01*
X43934459Y-55613332D01*
X43936464Y-55585764D01*
X43939816Y-55558429D01*
X43944494Y-55531371D01*
X43950480Y-55504638D01*
X43957754Y-55478276D01*
X43966298Y-55452329D01*
X43976092Y-55426845D01*
X43987119Y-55401869D01*
X43999358Y-55377448D01*
X44012791Y-55353626D01*
X44027398Y-55330451D01*
X44043162Y-55307968D01*
X44060062Y-55286222D01*
X44078080Y-55265261D01*
X44097198Y-55245130D01*
X44117289Y-55225972D01*
X44138214Y-55207911D01*
X44159924Y-55190966D01*
X44182375Y-55175157D01*
X44205520Y-55160502D01*
X44229313Y-55147020D01*
X44253709Y-55134732D01*
X44278662Y-55123655D01*
X44304125Y-55113808D01*
X44330053Y-55105212D01*
X44356399Y-55097884D01*
X44383118Y-55091844D01*
X44410164Y-55087111D01*
X44437490Y-55083704D01*
X44465051Y-55081642D01*
X44492802Y-55080944D01*
X44520555Y-55081643D01*
G37*
G36*
X86061293Y-79643658D02*
G01*
X86088862Y-79645663D01*
X86116197Y-79649013D01*
X86143255Y-79653691D01*
X86169988Y-79659675D01*
X86196351Y-79666949D01*
X86222297Y-79675492D01*
X86247782Y-79685285D01*
X86272758Y-79696311D01*
X86297180Y-79708549D01*
X86321002Y-79721981D01*
X86344178Y-79736588D01*
X86366661Y-79752351D01*
X86388407Y-79769250D01*
X86409368Y-79787268D01*
X86429500Y-79806384D01*
X86448659Y-79826475D01*
X86466721Y-79847399D01*
X86483666Y-79869108D01*
X86499476Y-79891559D01*
X86514132Y-79914704D01*
X86527614Y-79938498D01*
X86539904Y-79962894D01*
X86550982Y-79987847D01*
X86560829Y-80013311D01*
X86569427Y-80039240D01*
X86576755Y-80065588D01*
X86582796Y-80092308D01*
X86587530Y-80119356D01*
X86590938Y-80146685D01*
X86593001Y-80174249D01*
X86593700Y-80202002D01*
X86593700Y-81448879D01*
X86593001Y-81476632D01*
X86590938Y-81504196D01*
X86587530Y-81531524D01*
X86582796Y-81558572D01*
X86576755Y-81585292D01*
X86569427Y-81611639D01*
X86560829Y-81637568D01*
X86550982Y-81663031D01*
X86539904Y-81687984D01*
X86527614Y-81712380D01*
X86514132Y-81736174D01*
X86499476Y-81759319D01*
X86483666Y-81781769D01*
X86466721Y-81803479D01*
X86448659Y-81824403D01*
X86429500Y-81844494D01*
X86409368Y-81863611D01*
X86388407Y-81881629D01*
X86366661Y-81898529D01*
X86344178Y-81914292D01*
X86321002Y-81928899D01*
X86297180Y-81942331D01*
X86272758Y-81954569D01*
X86247782Y-81965595D01*
X86222297Y-81975389D01*
X86196351Y-81983932D01*
X86169988Y-81991205D01*
X86143255Y-81997190D01*
X86116197Y-82001867D01*
X86088862Y-82005218D01*
X86061293Y-82007223D01*
X86033539Y-82007863D01*
X86004778Y-82007126D01*
X85976395Y-82004958D01*
X85948425Y-82001394D01*
X85920903Y-81996471D01*
X85893863Y-81990223D01*
X85867342Y-81982685D01*
X85841374Y-81973892D01*
X85815994Y-81963880D01*
X85791237Y-81952682D01*
X85767139Y-81940335D01*
X85743734Y-81926874D01*
X85721058Y-81912334D01*
X85699145Y-81896749D01*
X85678031Y-81880154D01*
X85657751Y-81862586D01*
X85638339Y-81844079D01*
X85619832Y-81824667D01*
X85602264Y-81804387D01*
X85585669Y-81783273D01*
X85570084Y-81761360D01*
X85555544Y-81738684D01*
X85542082Y-81715279D01*
X85529736Y-81691181D01*
X85518538Y-81666424D01*
X85508526Y-81641044D01*
X85499733Y-81615076D01*
X85492195Y-81588554D01*
X85485947Y-81561515D01*
X85481023Y-81533993D01*
X85477460Y-81506023D01*
X85475292Y-81477640D01*
X85474555Y-81448879D01*
X85474555Y-80201986D01*
X85475293Y-80173225D01*
X85477462Y-80144842D01*
X85481026Y-80116872D01*
X85485950Y-80089350D01*
X85492199Y-80062311D01*
X85499738Y-80035790D01*
X85508532Y-80009822D01*
X85518545Y-79984442D01*
X85529743Y-79959685D01*
X85542090Y-79935587D01*
X85555552Y-79912183D01*
X85570093Y-79889507D01*
X85585679Y-79867595D01*
X85602273Y-79846481D01*
X85619842Y-79826201D01*
X85638350Y-79806791D01*
X85657761Y-79788284D01*
X85678041Y-79770716D01*
X85699155Y-79754122D01*
X85721068Y-79738538D01*
X85743744Y-79723998D01*
X85767149Y-79710537D01*
X85791247Y-79698191D01*
X85816003Y-79686995D01*
X85841382Y-79676983D01*
X85867350Y-79668191D01*
X85893870Y-79660653D01*
X85920908Y-79654406D01*
X85948430Y-79649484D01*
X85976398Y-79645921D01*
X86004780Y-79643754D01*
X86033539Y-79643017D01*
X86061293Y-79643658D01*
G37*
D12*
X51091028Y-72771429D02*
X49591028Y-72771429D01*
X51091028Y-73457143D02*
X50233885Y-72942857D01*
X49591028Y-73457143D02*
X50448171Y-72771429D01*
X51019600Y-74428572D02*
X51091028Y-74314286D01*
X51091028Y-74314286D02*
X51091028Y-74085715D01*
X51091028Y-74085715D02*
X51019600Y-73971429D01*
X51019600Y-73971429D02*
X50876742Y-73914286D01*
X50876742Y-73914286D02*
X50305314Y-73914286D01*
X50305314Y-73914286D02*
X50162457Y-73971429D01*
X50162457Y-73971429D02*
X50091028Y-74085715D01*
X50091028Y-74085715D02*
X50091028Y-74314286D01*
X50091028Y-74314286D02*
X50162457Y-74428572D01*
X50162457Y-74428572D02*
X50305314Y-74485715D01*
X50305314Y-74485715D02*
X50448171Y-74485715D01*
X50448171Y-74485715D02*
X50591028Y-73914286D01*
X50091028Y-74885714D02*
X51091028Y-75171428D01*
X50091028Y-75457143D02*
X51091028Y-75171428D01*
X51091028Y-75171428D02*
X51448171Y-75057143D01*
X51448171Y-75057143D02*
X51519600Y-75000000D01*
X51519600Y-75000000D02*
X51591028Y-74885714D01*
X51091028Y-75914286D02*
X49591028Y-75914286D01*
X50162457Y-75914286D02*
X50091028Y-76028572D01*
X50091028Y-76028572D02*
X50091028Y-76257143D01*
X50091028Y-76257143D02*
X50162457Y-76371429D01*
X50162457Y-76371429D02*
X50233885Y-76428572D01*
X50233885Y-76428572D02*
X50376742Y-76485714D01*
X50376742Y-76485714D02*
X50805314Y-76485714D01*
X50805314Y-76485714D02*
X50948171Y-76428572D01*
X50948171Y-76428572D02*
X51019600Y-76371429D01*
X51019600Y-76371429D02*
X51091028Y-76257143D01*
X51091028Y-76257143D02*
X51091028Y-76028572D01*
X51091028Y-76028572D02*
X51019600Y-75914286D01*
X51091028Y-77171428D02*
X51019600Y-77057143D01*
X51019600Y-77057143D02*
X50948171Y-77000000D01*
X50948171Y-77000000D02*
X50805314Y-76942857D01*
X50805314Y-76942857D02*
X50376742Y-76942857D01*
X50376742Y-76942857D02*
X50233885Y-77000000D01*
X50233885Y-77000000D02*
X50162457Y-77057143D01*
X50162457Y-77057143D02*
X50091028Y-77171428D01*
X50091028Y-77171428D02*
X50091028Y-77342857D01*
X50091028Y-77342857D02*
X50162457Y-77457143D01*
X50162457Y-77457143D02*
X50233885Y-77514286D01*
X50233885Y-77514286D02*
X50376742Y-77571428D01*
X50376742Y-77571428D02*
X50805314Y-77571428D01*
X50805314Y-77571428D02*
X50948171Y-77514286D01*
X50948171Y-77514286D02*
X51019600Y-77457143D01*
X51019600Y-77457143D02*
X51091028Y-77342857D01*
X51091028Y-77342857D02*
X51091028Y-77171428D01*
X51091028Y-78600000D02*
X50305314Y-78600000D01*
X50305314Y-78600000D02*
X50162457Y-78542857D01*
X50162457Y-78542857D02*
X50091028Y-78428571D01*
X50091028Y-78428571D02*
X50091028Y-78200000D01*
X50091028Y-78200000D02*
X50162457Y-78085714D01*
X51019600Y-78600000D02*
X51091028Y-78485714D01*
X51091028Y-78485714D02*
X51091028Y-78200000D01*
X51091028Y-78200000D02*
X51019600Y-78085714D01*
X51019600Y-78085714D02*
X50876742Y-78028571D01*
X50876742Y-78028571D02*
X50733885Y-78028571D01*
X50733885Y-78028571D02*
X50591028Y-78085714D01*
X50591028Y-78085714D02*
X50519600Y-78200000D01*
X50519600Y-78200000D02*
X50519600Y-78485714D01*
X50519600Y-78485714D02*
X50448171Y-78600000D01*
X51091028Y-79171428D02*
X50091028Y-79171428D01*
X50376742Y-79171428D02*
X50233885Y-79228571D01*
X50233885Y-79228571D02*
X50162457Y-79285714D01*
X50162457Y-79285714D02*
X50091028Y-79399999D01*
X50091028Y-79399999D02*
X50091028Y-79514285D01*
X51091028Y-80428571D02*
X49591028Y-80428571D01*
X51019600Y-80428571D02*
X51091028Y-80314285D01*
X51091028Y-80314285D02*
X51091028Y-80085713D01*
X51091028Y-80085713D02*
X51019600Y-79971428D01*
X51019600Y-79971428D02*
X50948171Y-79914285D01*
X50948171Y-79914285D02*
X50805314Y-79857142D01*
X50805314Y-79857142D02*
X50376742Y-79857142D01*
X50376742Y-79857142D02*
X50233885Y-79914285D01*
X50233885Y-79914285D02*
X50162457Y-79971428D01*
X50162457Y-79971428D02*
X50091028Y-80085713D01*
X50091028Y-80085713D02*
X50091028Y-80314285D01*
X50091028Y-80314285D02*
X50162457Y-80428571D01*
X49519600Y-81857142D02*
X51448171Y-80828570D01*
X51091028Y-82257142D02*
X49591028Y-82257142D01*
X49591028Y-82257142D02*
X50662457Y-82657142D01*
X50662457Y-82657142D02*
X49591028Y-83057142D01*
X49591028Y-83057142D02*
X51091028Y-83057142D01*
X51091028Y-83799999D02*
X51019600Y-83685714D01*
X51019600Y-83685714D02*
X50948171Y-83628571D01*
X50948171Y-83628571D02*
X50805314Y-83571428D01*
X50805314Y-83571428D02*
X50376742Y-83571428D01*
X50376742Y-83571428D02*
X50233885Y-83628571D01*
X50233885Y-83628571D02*
X50162457Y-83685714D01*
X50162457Y-83685714D02*
X50091028Y-83799999D01*
X50091028Y-83799999D02*
X50091028Y-83971428D01*
X50091028Y-83971428D02*
X50162457Y-84085714D01*
X50162457Y-84085714D02*
X50233885Y-84142857D01*
X50233885Y-84142857D02*
X50376742Y-84199999D01*
X50376742Y-84199999D02*
X50805314Y-84199999D01*
X50805314Y-84199999D02*
X50948171Y-84142857D01*
X50948171Y-84142857D02*
X51019600Y-84085714D01*
X51019600Y-84085714D02*
X51091028Y-83971428D01*
X51091028Y-83971428D02*
X51091028Y-83799999D01*
X50091028Y-85228571D02*
X51091028Y-85228571D01*
X50091028Y-84714285D02*
X50876742Y-84714285D01*
X50876742Y-84714285D02*
X51019600Y-84771428D01*
X51019600Y-84771428D02*
X51091028Y-84885713D01*
X51091028Y-84885713D02*
X51091028Y-85057142D01*
X51091028Y-85057142D02*
X51019600Y-85171428D01*
X51019600Y-85171428D02*
X50948171Y-85228571D01*
X51019600Y-85742856D02*
X51091028Y-85857142D01*
X51091028Y-85857142D02*
X51091028Y-86085713D01*
X51091028Y-86085713D02*
X51019600Y-86199999D01*
X51019600Y-86199999D02*
X50876742Y-86257142D01*
X50876742Y-86257142D02*
X50805314Y-86257142D01*
X50805314Y-86257142D02*
X50662457Y-86199999D01*
X50662457Y-86199999D02*
X50591028Y-86085713D01*
X50591028Y-86085713D02*
X50591028Y-85914285D01*
X50591028Y-85914285D02*
X50519600Y-85799999D01*
X50519600Y-85799999D02*
X50376742Y-85742856D01*
X50376742Y-85742856D02*
X50305314Y-85742856D01*
X50305314Y-85742856D02*
X50162457Y-85799999D01*
X50162457Y-85799999D02*
X50091028Y-85914285D01*
X50091028Y-85914285D02*
X50091028Y-86085713D01*
X50091028Y-86085713D02*
X50162457Y-86199999D01*
X51019600Y-87228571D02*
X51091028Y-87114285D01*
X51091028Y-87114285D02*
X51091028Y-86885714D01*
X51091028Y-86885714D02*
X51019600Y-86771428D01*
X51019600Y-86771428D02*
X50876742Y-86714285D01*
X50876742Y-86714285D02*
X50305314Y-86714285D01*
X50305314Y-86714285D02*
X50162457Y-86771428D01*
X50162457Y-86771428D02*
X50091028Y-86885714D01*
X50091028Y-86885714D02*
X50091028Y-87114285D01*
X50091028Y-87114285D02*
X50162457Y-87228571D01*
X50162457Y-87228571D02*
X50305314Y-87285714D01*
X50305314Y-87285714D02*
X50448171Y-87285714D01*
X50448171Y-87285714D02*
X50591028Y-86714285D01*
X53434600Y-77342857D02*
X53506028Y-77514286D01*
X53506028Y-77514286D02*
X53506028Y-77800000D01*
X53506028Y-77800000D02*
X53434600Y-77914286D01*
X53434600Y-77914286D02*
X53363171Y-77971428D01*
X53363171Y-77971428D02*
X53220314Y-78028571D01*
X53220314Y-78028571D02*
X53077457Y-78028571D01*
X53077457Y-78028571D02*
X52934600Y-77971428D01*
X52934600Y-77971428D02*
X52863171Y-77914286D01*
X52863171Y-77914286D02*
X52791742Y-77800000D01*
X52791742Y-77800000D02*
X52720314Y-77571428D01*
X52720314Y-77571428D02*
X52648885Y-77457143D01*
X52648885Y-77457143D02*
X52577457Y-77400000D01*
X52577457Y-77400000D02*
X52434600Y-77342857D01*
X52434600Y-77342857D02*
X52291742Y-77342857D01*
X52291742Y-77342857D02*
X52148885Y-77400000D01*
X52148885Y-77400000D02*
X52077457Y-77457143D01*
X52077457Y-77457143D02*
X52006028Y-77571428D01*
X52006028Y-77571428D02*
X52006028Y-77857143D01*
X52006028Y-77857143D02*
X52077457Y-78028571D01*
X52506028Y-78428571D02*
X53506028Y-78657143D01*
X53506028Y-78657143D02*
X52791742Y-78885714D01*
X52791742Y-78885714D02*
X53506028Y-79114285D01*
X53506028Y-79114285D02*
X52506028Y-79342857D01*
X53506028Y-79800000D02*
X52506028Y-79800000D01*
X52006028Y-79800000D02*
X52077457Y-79742857D01*
X52077457Y-79742857D02*
X52148885Y-79800000D01*
X52148885Y-79800000D02*
X52077457Y-79857143D01*
X52077457Y-79857143D02*
X52006028Y-79800000D01*
X52006028Y-79800000D02*
X52148885Y-79800000D01*
X52506028Y-80200000D02*
X52506028Y-80657143D01*
X52006028Y-80371429D02*
X53291742Y-80371429D01*
X53291742Y-80371429D02*
X53434600Y-80428572D01*
X53434600Y-80428572D02*
X53506028Y-80542857D01*
X53506028Y-80542857D02*
X53506028Y-80657143D01*
X53434600Y-81571429D02*
X53506028Y-81457143D01*
X53506028Y-81457143D02*
X53506028Y-81228571D01*
X53506028Y-81228571D02*
X53434600Y-81114286D01*
X53434600Y-81114286D02*
X53363171Y-81057143D01*
X53363171Y-81057143D02*
X53220314Y-81000000D01*
X53220314Y-81000000D02*
X52791742Y-81000000D01*
X52791742Y-81000000D02*
X52648885Y-81057143D01*
X52648885Y-81057143D02*
X52577457Y-81114286D01*
X52577457Y-81114286D02*
X52506028Y-81228571D01*
X52506028Y-81228571D02*
X52506028Y-81457143D01*
X52506028Y-81457143D02*
X52577457Y-81571429D01*
X53506028Y-82085714D02*
X52006028Y-82085714D01*
X53506028Y-82600000D02*
X52720314Y-82600000D01*
X52720314Y-82600000D02*
X52577457Y-82542857D01*
X52577457Y-82542857D02*
X52506028Y-82428571D01*
X52506028Y-82428571D02*
X52506028Y-82257142D01*
X52506028Y-82257142D02*
X52577457Y-82142857D01*
X52577457Y-82142857D02*
X52648885Y-82085714D01*
X93166517Y-114364980D02*
X93166517Y-113264980D01*
X93166517Y-113684028D02*
X93061755Y-113631647D01*
X93061755Y-113631647D02*
X92852231Y-113631647D01*
X92852231Y-113631647D02*
X92747469Y-113684028D01*
X92747469Y-113684028D02*
X92695088Y-113736409D01*
X92695088Y-113736409D02*
X92642707Y-113841171D01*
X92642707Y-113841171D02*
X92642707Y-114155457D01*
X92642707Y-114155457D02*
X92695088Y-114260219D01*
X92695088Y-114260219D02*
X92747469Y-114312600D01*
X92747469Y-114312600D02*
X92852231Y-114364980D01*
X92852231Y-114364980D02*
X93061755Y-114364980D01*
X93061755Y-114364980D02*
X93166517Y-114312600D01*
X92276041Y-113631647D02*
X92014136Y-114364980D01*
X91752231Y-113631647D02*
X92014136Y-114364980D01*
X92014136Y-114364980D02*
X92118898Y-114626885D01*
X92118898Y-114626885D02*
X92171279Y-114679266D01*
X92171279Y-114679266D02*
X92276041Y-114731647D01*
X90495089Y-114364980D02*
X90495089Y-113264980D01*
X90495089Y-113788790D02*
X89866517Y-113788790D01*
X89866517Y-114364980D02*
X89866517Y-113264980D01*
X89342708Y-114364980D02*
X89342708Y-113631647D01*
X89342708Y-113841171D02*
X89290327Y-113736409D01*
X89290327Y-113736409D02*
X89237946Y-113684028D01*
X89237946Y-113684028D02*
X89133184Y-113631647D01*
X89133184Y-113631647D02*
X89028422Y-113631647D01*
X88766518Y-113631647D02*
X88504613Y-114364980D01*
X88504613Y-114364980D02*
X88242708Y-113631647D01*
X87666518Y-114364980D02*
X87771280Y-114312600D01*
X87771280Y-114312600D02*
X87823661Y-114260219D01*
X87823661Y-114260219D02*
X87876042Y-114155457D01*
X87876042Y-114155457D02*
X87876042Y-113841171D01*
X87876042Y-113841171D02*
X87823661Y-113736409D01*
X87823661Y-113736409D02*
X87771280Y-113684028D01*
X87771280Y-113684028D02*
X87666518Y-113631647D01*
X87666518Y-113631647D02*
X87509375Y-113631647D01*
X87509375Y-113631647D02*
X87404613Y-113684028D01*
X87404613Y-113684028D02*
X87352232Y-113736409D01*
X87352232Y-113736409D02*
X87299851Y-113841171D01*
X87299851Y-113841171D02*
X87299851Y-114155457D01*
X87299851Y-114155457D02*
X87352232Y-114260219D01*
X87352232Y-114260219D02*
X87404613Y-114312600D01*
X87404613Y-114312600D02*
X87509375Y-114364980D01*
X87509375Y-114364980D02*
X87666518Y-114364980D01*
X86828423Y-113631647D02*
X86828423Y-114574504D01*
X86828423Y-114574504D02*
X86880804Y-114679266D01*
X86880804Y-114679266D02*
X86985566Y-114731647D01*
X86985566Y-114731647D02*
X87037947Y-114731647D01*
X86828423Y-113264980D02*
X86880804Y-113317361D01*
X86880804Y-113317361D02*
X86828423Y-113369742D01*
X86828423Y-113369742D02*
X86776042Y-113317361D01*
X86776042Y-113317361D02*
X86828423Y-113264980D01*
X86828423Y-113264980D02*
X86828423Y-113369742D01*
X85885565Y-114312600D02*
X85990327Y-114364980D01*
X85990327Y-114364980D02*
X86199851Y-114364980D01*
X86199851Y-114364980D02*
X86304613Y-114312600D01*
X86304613Y-114312600D02*
X86356994Y-114207838D01*
X86356994Y-114207838D02*
X86356994Y-113788790D01*
X86356994Y-113788790D02*
X86304613Y-113684028D01*
X86304613Y-113684028D02*
X86199851Y-113631647D01*
X86199851Y-113631647D02*
X85990327Y-113631647D01*
X85990327Y-113631647D02*
X85885565Y-113684028D01*
X85885565Y-113684028D02*
X85833184Y-113788790D01*
X85833184Y-113788790D02*
X85833184Y-113893552D01*
X85833184Y-113893552D02*
X86356994Y-113998314D01*
X83895089Y-114260219D02*
X83947470Y-114312600D01*
X83947470Y-114312600D02*
X84104613Y-114364980D01*
X84104613Y-114364980D02*
X84209375Y-114364980D01*
X84209375Y-114364980D02*
X84366518Y-114312600D01*
X84366518Y-114312600D02*
X84471280Y-114207838D01*
X84471280Y-114207838D02*
X84523661Y-114103076D01*
X84523661Y-114103076D02*
X84576042Y-113893552D01*
X84576042Y-113893552D02*
X84576042Y-113736409D01*
X84576042Y-113736409D02*
X84523661Y-113526885D01*
X84523661Y-113526885D02*
X84471280Y-113422123D01*
X84471280Y-113422123D02*
X84366518Y-113317361D01*
X84366518Y-113317361D02*
X84209375Y-113264980D01*
X84209375Y-113264980D02*
X84104613Y-113264980D01*
X84104613Y-113264980D02*
X83947470Y-113317361D01*
X83947470Y-113317361D02*
X83895089Y-113369742D01*
X82952232Y-114364980D02*
X82952232Y-113788790D01*
X82952232Y-113788790D02*
X83004613Y-113684028D01*
X83004613Y-113684028D02*
X83109375Y-113631647D01*
X83109375Y-113631647D02*
X83318899Y-113631647D01*
X83318899Y-113631647D02*
X83423661Y-113684028D01*
X82952232Y-114312600D02*
X83056994Y-114364980D01*
X83056994Y-114364980D02*
X83318899Y-114364980D01*
X83318899Y-114364980D02*
X83423661Y-114312600D01*
X83423661Y-114312600D02*
X83476042Y-114207838D01*
X83476042Y-114207838D02*
X83476042Y-114103076D01*
X83476042Y-114103076D02*
X83423661Y-113998314D01*
X83423661Y-113998314D02*
X83318899Y-113945933D01*
X83318899Y-113945933D02*
X83056994Y-113945933D01*
X83056994Y-113945933D02*
X82952232Y-113893552D01*
X82533185Y-113631647D02*
X82271280Y-114364980D01*
X82271280Y-114364980D02*
X82009375Y-113631647D01*
X81590328Y-114364980D02*
X81590328Y-113631647D01*
X81590328Y-113841171D02*
X81537947Y-113736409D01*
X81537947Y-113736409D02*
X81485566Y-113684028D01*
X81485566Y-113684028D02*
X81380804Y-113631647D01*
X81380804Y-113631647D02*
X81276042Y-113631647D01*
X80437947Y-114364980D02*
X80437947Y-113788790D01*
X80437947Y-113788790D02*
X80490328Y-113684028D01*
X80490328Y-113684028D02*
X80595090Y-113631647D01*
X80595090Y-113631647D02*
X80804614Y-113631647D01*
X80804614Y-113631647D02*
X80909376Y-113684028D01*
X80437947Y-114312600D02*
X80542709Y-114364980D01*
X80542709Y-114364980D02*
X80804614Y-114364980D01*
X80804614Y-114364980D02*
X80909376Y-114312600D01*
X80909376Y-114312600D02*
X80961757Y-114207838D01*
X80961757Y-114207838D02*
X80961757Y-114103076D01*
X80961757Y-114103076D02*
X80909376Y-113998314D01*
X80909376Y-113998314D02*
X80804614Y-113945933D01*
X80804614Y-113945933D02*
X80542709Y-113945933D01*
X80542709Y-113945933D02*
X80437947Y-113893552D01*
X79914138Y-114364980D02*
X79914138Y-113264980D01*
X79809376Y-113945933D02*
X79495090Y-114364980D01*
X79495090Y-113631647D02*
X79914138Y-114050695D01*
X78971281Y-114312600D02*
X78971281Y-114364980D01*
X78971281Y-114364980D02*
X79023662Y-114469742D01*
X79023662Y-114469742D02*
X79076043Y-114522123D01*
X77452233Y-113264980D02*
X77347471Y-113264980D01*
X77347471Y-113264980D02*
X77242709Y-113317361D01*
X77242709Y-113317361D02*
X77190328Y-113369742D01*
X77190328Y-113369742D02*
X77137947Y-113474504D01*
X77137947Y-113474504D02*
X77085566Y-113684028D01*
X77085566Y-113684028D02*
X77085566Y-113945933D01*
X77085566Y-113945933D02*
X77137947Y-114155457D01*
X77137947Y-114155457D02*
X77190328Y-114260219D01*
X77190328Y-114260219D02*
X77242709Y-114312600D01*
X77242709Y-114312600D02*
X77347471Y-114364980D01*
X77347471Y-114364980D02*
X77452233Y-114364980D01*
X77452233Y-114364980D02*
X77556995Y-114312600D01*
X77556995Y-114312600D02*
X77609376Y-114260219D01*
X77609376Y-114260219D02*
X77661757Y-114155457D01*
X77661757Y-114155457D02*
X77714138Y-113945933D01*
X77714138Y-113945933D02*
X77714138Y-113684028D01*
X77714138Y-113684028D02*
X77661757Y-113474504D01*
X77661757Y-113474504D02*
X77609376Y-113369742D01*
X77609376Y-113369742D02*
X77556995Y-113317361D01*
X77556995Y-113317361D02*
X77452233Y-113264980D01*
X76037947Y-114364980D02*
X76666519Y-114364980D01*
X76352233Y-114364980D02*
X76352233Y-113264980D01*
X76352233Y-113264980D02*
X76456995Y-113422123D01*
X76456995Y-113422123D02*
X76561757Y-113526885D01*
X76561757Y-113526885D02*
X76666519Y-113579266D01*
X74780804Y-113212600D02*
X75723662Y-114626885D01*
X74466519Y-113369742D02*
X74414138Y-113317361D01*
X74414138Y-113317361D02*
X74309376Y-113264980D01*
X74309376Y-113264980D02*
X74047471Y-113264980D01*
X74047471Y-113264980D02*
X73942709Y-113317361D01*
X73942709Y-113317361D02*
X73890328Y-113369742D01*
X73890328Y-113369742D02*
X73837947Y-113474504D01*
X73837947Y-113474504D02*
X73837947Y-113579266D01*
X73837947Y-113579266D02*
X73890328Y-113736409D01*
X73890328Y-113736409D02*
X74518900Y-114364980D01*
X74518900Y-114364980D02*
X73837947Y-114364980D01*
X72895090Y-113631647D02*
X72895090Y-114364980D01*
X73156995Y-113212600D02*
X73418900Y-113998314D01*
X73418900Y-113998314D02*
X72737947Y-113998314D01*
D13*
X86887942Y-66611604D02*
X89887942Y-66611604D01*
X89887942Y-66611604D02*
X89887942Y-66016366D01*
X89887942Y-66016366D02*
X89745085Y-65659223D01*
X89745085Y-65659223D02*
X89459371Y-65421128D01*
X89459371Y-65421128D02*
X89173657Y-65302081D01*
X89173657Y-65302081D02*
X88602228Y-65183033D01*
X88602228Y-65183033D02*
X88173657Y-65183033D01*
X88173657Y-65183033D02*
X87602228Y-65302081D01*
X87602228Y-65302081D02*
X87316514Y-65421128D01*
X87316514Y-65421128D02*
X87030800Y-65659223D01*
X87030800Y-65659223D02*
X86887942Y-66016366D01*
X86887942Y-66016366D02*
X86887942Y-66611604D01*
X87030800Y-63159223D02*
X86887942Y-63397319D01*
X86887942Y-63397319D02*
X86887942Y-63873509D01*
X86887942Y-63873509D02*
X87030800Y-64111604D01*
X87030800Y-64111604D02*
X87316514Y-64230652D01*
X87316514Y-64230652D02*
X88459371Y-64230652D01*
X88459371Y-64230652D02*
X88745085Y-64111604D01*
X88745085Y-64111604D02*
X88887942Y-63873509D01*
X88887942Y-63873509D02*
X88887942Y-63397319D01*
X88887942Y-63397319D02*
X88745085Y-63159223D01*
X88745085Y-63159223D02*
X88459371Y-63040176D01*
X88459371Y-63040176D02*
X88173657Y-63040176D01*
X88173657Y-63040176D02*
X87887942Y-64230652D01*
X87030800Y-62087795D02*
X86887942Y-61849700D01*
X86887942Y-61849700D02*
X86887942Y-61373509D01*
X86887942Y-61373509D02*
X87030800Y-61135414D01*
X87030800Y-61135414D02*
X87316514Y-61016366D01*
X87316514Y-61016366D02*
X87459371Y-61016366D01*
X87459371Y-61016366D02*
X87745085Y-61135414D01*
X87745085Y-61135414D02*
X87887942Y-61373509D01*
X87887942Y-61373509D02*
X87887942Y-61730652D01*
X87887942Y-61730652D02*
X88030800Y-61968747D01*
X88030800Y-61968747D02*
X88316514Y-62087795D01*
X88316514Y-62087795D02*
X88459371Y-62087795D01*
X88459371Y-62087795D02*
X88745085Y-61968747D01*
X88745085Y-61968747D02*
X88887942Y-61730652D01*
X88887942Y-61730652D02*
X88887942Y-61373509D01*
X88887942Y-61373509D02*
X88745085Y-61135414D01*
X86887942Y-59944937D02*
X89887942Y-59944937D01*
X88030800Y-59706842D02*
X86887942Y-58992556D01*
X88887942Y-58992556D02*
X87745085Y-59944937D01*
X86887942Y-57921127D02*
X89887942Y-57921127D01*
X88459371Y-57921127D02*
X88459371Y-56492556D01*
X86887942Y-56492556D02*
X89887942Y-56492556D01*
X86887942Y-54944937D02*
X87030800Y-55183032D01*
X87030800Y-55183032D02*
X87173657Y-55302079D01*
X87173657Y-55302079D02*
X87459371Y-55421127D01*
X87459371Y-55421127D02*
X88316514Y-55421127D01*
X88316514Y-55421127D02*
X88602228Y-55302079D01*
X88602228Y-55302079D02*
X88745085Y-55183032D01*
X88745085Y-55183032D02*
X88887942Y-54944937D01*
X88887942Y-54944937D02*
X88887942Y-54587794D01*
X88887942Y-54587794D02*
X88745085Y-54349698D01*
X88745085Y-54349698D02*
X88602228Y-54230651D01*
X88602228Y-54230651D02*
X88316514Y-54111603D01*
X88316514Y-54111603D02*
X87459371Y-54111603D01*
X87459371Y-54111603D02*
X87173657Y-54230651D01*
X87173657Y-54230651D02*
X87030800Y-54349698D01*
X87030800Y-54349698D02*
X86887942Y-54587794D01*
X86887942Y-54587794D02*
X86887942Y-54944937D01*
X88887942Y-53040174D02*
X85887942Y-53040174D01*
X88745085Y-53040174D02*
X88887942Y-52802079D01*
X88887942Y-52802079D02*
X88887942Y-52325889D01*
X88887942Y-52325889D02*
X88745085Y-52087793D01*
X88745085Y-52087793D02*
X88602228Y-51968746D01*
X88602228Y-51968746D02*
X88316514Y-51849698D01*
X88316514Y-51849698D02*
X87459371Y-51849698D01*
X87459371Y-51849698D02*
X87173657Y-51968746D01*
X87173657Y-51968746D02*
X87030800Y-52087793D01*
X87030800Y-52087793D02*
X86887942Y-52325889D01*
X86887942Y-52325889D02*
X86887942Y-52802079D01*
X86887942Y-52802079D02*
X87030800Y-53040174D01*
D12*
X62776517Y-114364980D02*
X62776517Y-113264980D01*
X62305088Y-114364980D02*
X62305088Y-113788790D01*
X62305088Y-113788790D02*
X62357469Y-113684028D01*
X62357469Y-113684028D02*
X62462231Y-113631647D01*
X62462231Y-113631647D02*
X62619374Y-113631647D01*
X62619374Y-113631647D02*
X62724136Y-113684028D01*
X62724136Y-113684028D02*
X62776517Y-113736409D01*
X61938422Y-113631647D02*
X61519374Y-113631647D01*
X61781279Y-113264980D02*
X61781279Y-114207838D01*
X61781279Y-114207838D02*
X61728898Y-114312600D01*
X61728898Y-114312600D02*
X61624136Y-114364980D01*
X61624136Y-114364980D02*
X61519374Y-114364980D01*
X61309851Y-113631647D02*
X60890803Y-113631647D01*
X61152708Y-113264980D02*
X61152708Y-114207838D01*
X61152708Y-114207838D02*
X61100327Y-114312600D01*
X61100327Y-114312600D02*
X60995565Y-114364980D01*
X60995565Y-114364980D02*
X60890803Y-114364980D01*
X60524137Y-113631647D02*
X60524137Y-114731647D01*
X60524137Y-113684028D02*
X60419375Y-113631647D01*
X60419375Y-113631647D02*
X60209851Y-113631647D01*
X60209851Y-113631647D02*
X60105089Y-113684028D01*
X60105089Y-113684028D02*
X60052708Y-113736409D01*
X60052708Y-113736409D02*
X60000327Y-113841171D01*
X60000327Y-113841171D02*
X60000327Y-114155457D01*
X60000327Y-114155457D02*
X60052708Y-114260219D01*
X60052708Y-114260219D02*
X60105089Y-114312600D01*
X60105089Y-114312600D02*
X60209851Y-114364980D01*
X60209851Y-114364980D02*
X60419375Y-114364980D01*
X60419375Y-114364980D02*
X60524137Y-114312600D01*
X59581280Y-114312600D02*
X59476518Y-114364980D01*
X59476518Y-114364980D02*
X59266994Y-114364980D01*
X59266994Y-114364980D02*
X59162232Y-114312600D01*
X59162232Y-114312600D02*
X59109851Y-114207838D01*
X59109851Y-114207838D02*
X59109851Y-114155457D01*
X59109851Y-114155457D02*
X59162232Y-114050695D01*
X59162232Y-114050695D02*
X59266994Y-113998314D01*
X59266994Y-113998314D02*
X59424137Y-113998314D01*
X59424137Y-113998314D02*
X59528899Y-113945933D01*
X59528899Y-113945933D02*
X59581280Y-113841171D01*
X59581280Y-113841171D02*
X59581280Y-113788790D01*
X59581280Y-113788790D02*
X59528899Y-113684028D01*
X59528899Y-113684028D02*
X59424137Y-113631647D01*
X59424137Y-113631647D02*
X59266994Y-113631647D01*
X59266994Y-113631647D02*
X59162232Y-113684028D01*
X58638423Y-114260219D02*
X58586042Y-114312600D01*
X58586042Y-114312600D02*
X58638423Y-114364980D01*
X58638423Y-114364980D02*
X58690804Y-114312600D01*
X58690804Y-114312600D02*
X58638423Y-114260219D01*
X58638423Y-114260219D02*
X58638423Y-114364980D01*
X58638423Y-113684028D02*
X58586042Y-113736409D01*
X58586042Y-113736409D02*
X58638423Y-113788790D01*
X58638423Y-113788790D02*
X58690804Y-113736409D01*
X58690804Y-113736409D02*
X58638423Y-113684028D01*
X58638423Y-113684028D02*
X58638423Y-113788790D01*
X57328898Y-113212600D02*
X58271756Y-114626885D01*
X56176517Y-113212600D02*
X57119375Y-114626885D01*
X55338422Y-113631647D02*
X55338422Y-114522123D01*
X55338422Y-114522123D02*
X55390803Y-114626885D01*
X55390803Y-114626885D02*
X55443184Y-114679266D01*
X55443184Y-114679266D02*
X55547946Y-114731647D01*
X55547946Y-114731647D02*
X55705089Y-114731647D01*
X55705089Y-114731647D02*
X55809851Y-114679266D01*
X55338422Y-114312600D02*
X55443184Y-114364980D01*
X55443184Y-114364980D02*
X55652708Y-114364980D01*
X55652708Y-114364980D02*
X55757470Y-114312600D01*
X55757470Y-114312600D02*
X55809851Y-114260219D01*
X55809851Y-114260219D02*
X55862232Y-114155457D01*
X55862232Y-114155457D02*
X55862232Y-113841171D01*
X55862232Y-113841171D02*
X55809851Y-113736409D01*
X55809851Y-113736409D02*
X55757470Y-113684028D01*
X55757470Y-113684028D02*
X55652708Y-113631647D01*
X55652708Y-113631647D02*
X55443184Y-113631647D01*
X55443184Y-113631647D02*
X55338422Y-113684028D01*
X54814613Y-114364980D02*
X54814613Y-113631647D01*
X54814613Y-113264980D02*
X54866994Y-113317361D01*
X54866994Y-113317361D02*
X54814613Y-113369742D01*
X54814613Y-113369742D02*
X54762232Y-113317361D01*
X54762232Y-113317361D02*
X54814613Y-113264980D01*
X54814613Y-113264980D02*
X54814613Y-113369742D01*
X54447946Y-113631647D02*
X54028898Y-113631647D01*
X54290803Y-113264980D02*
X54290803Y-114207838D01*
X54290803Y-114207838D02*
X54238422Y-114312600D01*
X54238422Y-114312600D02*
X54133660Y-114364980D01*
X54133660Y-114364980D02*
X54028898Y-114364980D01*
X53662232Y-114364980D02*
X53662232Y-113264980D01*
X53190803Y-114364980D02*
X53190803Y-113788790D01*
X53190803Y-113788790D02*
X53243184Y-113684028D01*
X53243184Y-113684028D02*
X53347946Y-113631647D01*
X53347946Y-113631647D02*
X53505089Y-113631647D01*
X53505089Y-113631647D02*
X53609851Y-113684028D01*
X53609851Y-113684028D02*
X53662232Y-113736409D01*
X52195565Y-113631647D02*
X52195565Y-114364980D01*
X52666994Y-113631647D02*
X52666994Y-114207838D01*
X52666994Y-114207838D02*
X52614613Y-114312600D01*
X52614613Y-114312600D02*
X52509851Y-114364980D01*
X52509851Y-114364980D02*
X52352708Y-114364980D01*
X52352708Y-114364980D02*
X52247946Y-114312600D01*
X52247946Y-114312600D02*
X52195565Y-114260219D01*
X51671756Y-114364980D02*
X51671756Y-113264980D01*
X51671756Y-113684028D02*
X51566994Y-113631647D01*
X51566994Y-113631647D02*
X51357470Y-113631647D01*
X51357470Y-113631647D02*
X51252708Y-113684028D01*
X51252708Y-113684028D02*
X51200327Y-113736409D01*
X51200327Y-113736409D02*
X51147946Y-113841171D01*
X51147946Y-113841171D02*
X51147946Y-114155457D01*
X51147946Y-114155457D02*
X51200327Y-114260219D01*
X51200327Y-114260219D02*
X51252708Y-114312600D01*
X51252708Y-114312600D02*
X51357470Y-114364980D01*
X51357470Y-114364980D02*
X51566994Y-114364980D01*
X51566994Y-114364980D02*
X51671756Y-114312600D01*
X50676518Y-114260219D02*
X50624137Y-114312600D01*
X50624137Y-114312600D02*
X50676518Y-114364980D01*
X50676518Y-114364980D02*
X50728899Y-114312600D01*
X50728899Y-114312600D02*
X50676518Y-114260219D01*
X50676518Y-114260219D02*
X50676518Y-114364980D01*
X49681279Y-114312600D02*
X49786041Y-114364980D01*
X49786041Y-114364980D02*
X49995565Y-114364980D01*
X49995565Y-114364980D02*
X50100327Y-114312600D01*
X50100327Y-114312600D02*
X50152708Y-114260219D01*
X50152708Y-114260219D02*
X50205089Y-114155457D01*
X50205089Y-114155457D02*
X50205089Y-113841171D01*
X50205089Y-113841171D02*
X50152708Y-113736409D01*
X50152708Y-113736409D02*
X50100327Y-113684028D01*
X50100327Y-113684028D02*
X49995565Y-113631647D01*
X49995565Y-113631647D02*
X49786041Y-113631647D01*
X49786041Y-113631647D02*
X49681279Y-113684028D01*
X49052708Y-114364980D02*
X49157470Y-114312600D01*
X49157470Y-114312600D02*
X49209851Y-114260219D01*
X49209851Y-114260219D02*
X49262232Y-114155457D01*
X49262232Y-114155457D02*
X49262232Y-113841171D01*
X49262232Y-113841171D02*
X49209851Y-113736409D01*
X49209851Y-113736409D02*
X49157470Y-113684028D01*
X49157470Y-113684028D02*
X49052708Y-113631647D01*
X49052708Y-113631647D02*
X48895565Y-113631647D01*
X48895565Y-113631647D02*
X48790803Y-113684028D01*
X48790803Y-113684028D02*
X48738422Y-113736409D01*
X48738422Y-113736409D02*
X48686041Y-113841171D01*
X48686041Y-113841171D02*
X48686041Y-114155457D01*
X48686041Y-114155457D02*
X48738422Y-114260219D01*
X48738422Y-114260219D02*
X48790803Y-114312600D01*
X48790803Y-114312600D02*
X48895565Y-114364980D01*
X48895565Y-114364980D02*
X49052708Y-114364980D01*
X48214613Y-114364980D02*
X48214613Y-113631647D01*
X48214613Y-113736409D02*
X48162232Y-113684028D01*
X48162232Y-113684028D02*
X48057470Y-113631647D01*
X48057470Y-113631647D02*
X47900327Y-113631647D01*
X47900327Y-113631647D02*
X47795565Y-113684028D01*
X47795565Y-113684028D02*
X47743184Y-113788790D01*
X47743184Y-113788790D02*
X47743184Y-114364980D01*
X47743184Y-113788790D02*
X47690803Y-113684028D01*
X47690803Y-113684028D02*
X47586041Y-113631647D01*
X47586041Y-113631647D02*
X47428898Y-113631647D01*
X47428898Y-113631647D02*
X47324137Y-113684028D01*
X47324137Y-113684028D02*
X47271756Y-113788790D01*
X47271756Y-113788790D02*
X47271756Y-114364980D01*
X45962231Y-113212600D02*
X46905089Y-114626885D01*
X45595565Y-114364980D02*
X45595565Y-113264980D01*
X45124136Y-114364980D02*
X45124136Y-113788790D01*
X45124136Y-113788790D02*
X45176517Y-113684028D01*
X45176517Y-113684028D02*
X45281279Y-113631647D01*
X45281279Y-113631647D02*
X45438422Y-113631647D01*
X45438422Y-113631647D02*
X45543184Y-113684028D01*
X45543184Y-113684028D02*
X45595565Y-113736409D01*
X44600327Y-114364980D02*
X44600327Y-113631647D01*
X44600327Y-113841171D02*
X44547946Y-113736409D01*
X44547946Y-113736409D02*
X44495565Y-113684028D01*
X44495565Y-113684028D02*
X44390803Y-113631647D01*
X44390803Y-113631647D02*
X44286041Y-113631647D01*
X44024137Y-113631647D02*
X43762232Y-114364980D01*
X43762232Y-114364980D02*
X43500327Y-113631647D01*
X42609851Y-114364980D02*
X42609851Y-113788790D01*
X42609851Y-113788790D02*
X42662232Y-113684028D01*
X42662232Y-113684028D02*
X42766994Y-113631647D01*
X42766994Y-113631647D02*
X42976518Y-113631647D01*
X42976518Y-113631647D02*
X43081280Y-113684028D01*
X42609851Y-114312600D02*
X42714613Y-114364980D01*
X42714613Y-114364980D02*
X42976518Y-114364980D01*
X42976518Y-114364980D02*
X43081280Y-114312600D01*
X43081280Y-114312600D02*
X43133661Y-114207838D01*
X43133661Y-114207838D02*
X43133661Y-114103076D01*
X43133661Y-114103076D02*
X43081280Y-113998314D01*
X43081280Y-113998314D02*
X42976518Y-113945933D01*
X42976518Y-113945933D02*
X42714613Y-113945933D01*
X42714613Y-113945933D02*
X42609851Y-113893552D01*
X41614613Y-114312600D02*
X41719375Y-114364980D01*
X41719375Y-114364980D02*
X41928899Y-114364980D01*
X41928899Y-114364980D02*
X42033661Y-114312600D01*
X42033661Y-114312600D02*
X42086042Y-114260219D01*
X42086042Y-114260219D02*
X42138423Y-114155457D01*
X42138423Y-114155457D02*
X42138423Y-113841171D01*
X42138423Y-113841171D02*
X42086042Y-113736409D01*
X42086042Y-113736409D02*
X42033661Y-113684028D01*
X42033661Y-113684028D02*
X41928899Y-113631647D01*
X41928899Y-113631647D02*
X41719375Y-113631647D01*
X41719375Y-113631647D02*
X41614613Y-113684028D01*
X41143185Y-114364980D02*
X41143185Y-113264980D01*
X40671756Y-114364980D02*
X40671756Y-113788790D01*
X40671756Y-113788790D02*
X40724137Y-113684028D01*
X40724137Y-113684028D02*
X40828899Y-113631647D01*
X40828899Y-113631647D02*
X40986042Y-113631647D01*
X40986042Y-113631647D02*
X41090804Y-113684028D01*
X41090804Y-113684028D02*
X41143185Y-113736409D01*
X99044980Y-43653482D02*
X98311647Y-43653482D01*
X98521171Y-43653482D02*
X98416409Y-43705863D01*
X98416409Y-43705863D02*
X98364028Y-43758244D01*
X98364028Y-43758244D02*
X98311647Y-43863006D01*
X98311647Y-43863006D02*
X98311647Y-43967768D01*
X98992600Y-44753482D02*
X99044980Y-44648720D01*
X99044980Y-44648720D02*
X99044980Y-44439196D01*
X99044980Y-44439196D02*
X98992600Y-44334434D01*
X98992600Y-44334434D02*
X98887838Y-44282053D01*
X98887838Y-44282053D02*
X98468790Y-44282053D01*
X98468790Y-44282053D02*
X98364028Y-44334434D01*
X98364028Y-44334434D02*
X98311647Y-44439196D01*
X98311647Y-44439196D02*
X98311647Y-44648720D01*
X98311647Y-44648720D02*
X98364028Y-44753482D01*
X98364028Y-44753482D02*
X98468790Y-44805863D01*
X98468790Y-44805863D02*
X98573552Y-44805863D01*
X98573552Y-44805863D02*
X98678314Y-44282053D01*
X98311647Y-45172529D02*
X99044980Y-45434434D01*
X99044980Y-45434434D02*
X98311647Y-45696339D01*
X99044980Y-47529672D02*
X99044980Y-46901100D01*
X99044980Y-47215386D02*
X97944980Y-47215386D01*
X97944980Y-47215386D02*
X98102123Y-47110624D01*
X98102123Y-47110624D02*
X98206885Y-47005862D01*
X98206885Y-47005862D02*
X98259266Y-46901100D01*
X98940219Y-48001100D02*
X98992600Y-48053481D01*
X98992600Y-48053481D02*
X99044980Y-48001100D01*
X99044980Y-48001100D02*
X98992600Y-47948719D01*
X98992600Y-47948719D02*
X98940219Y-48001100D01*
X98940219Y-48001100D02*
X99044980Y-48001100D01*
X99044980Y-49101101D02*
X99044980Y-48472529D01*
X99044980Y-48786815D02*
X97944980Y-48786815D01*
X97944980Y-48786815D02*
X98102123Y-48682053D01*
X98102123Y-48682053D02*
X98206885Y-48577291D01*
X98206885Y-48577291D02*
X98259266Y-48472529D01*
X83568971Y-66758570D02*
X85068971Y-66758570D01*
X83568971Y-66072856D02*
X84426114Y-66587142D01*
X85068971Y-66072856D02*
X84211828Y-66758570D01*
X83640400Y-65101427D02*
X83568971Y-65215713D01*
X83568971Y-65215713D02*
X83568971Y-65444285D01*
X83568971Y-65444285D02*
X83640400Y-65558570D01*
X83640400Y-65558570D02*
X83783257Y-65615713D01*
X83783257Y-65615713D02*
X84354685Y-65615713D01*
X84354685Y-65615713D02*
X84497542Y-65558570D01*
X84497542Y-65558570D02*
X84568971Y-65444285D01*
X84568971Y-65444285D02*
X84568971Y-65215713D01*
X84568971Y-65215713D02*
X84497542Y-65101427D01*
X84497542Y-65101427D02*
X84354685Y-65044285D01*
X84354685Y-65044285D02*
X84211828Y-65044285D01*
X84211828Y-65044285D02*
X84068971Y-65615713D01*
X84568971Y-64644285D02*
X83568971Y-64358571D01*
X84568971Y-64072856D02*
X83568971Y-64358571D01*
X83568971Y-64358571D02*
X83211828Y-64472856D01*
X83211828Y-64472856D02*
X83140400Y-64529999D01*
X83140400Y-64529999D02*
X83068971Y-64644285D01*
X83568971Y-63615713D02*
X85068971Y-63615713D01*
X84497542Y-63615713D02*
X84568971Y-63501428D01*
X84568971Y-63501428D02*
X84568971Y-63272856D01*
X84568971Y-63272856D02*
X84497542Y-63158570D01*
X84497542Y-63158570D02*
X84426114Y-63101428D01*
X84426114Y-63101428D02*
X84283257Y-63044285D01*
X84283257Y-63044285D02*
X83854685Y-63044285D01*
X83854685Y-63044285D02*
X83711828Y-63101428D01*
X83711828Y-63101428D02*
X83640400Y-63158570D01*
X83640400Y-63158570D02*
X83568971Y-63272856D01*
X83568971Y-63272856D02*
X83568971Y-63501428D01*
X83568971Y-63501428D02*
X83640400Y-63615713D01*
X83568971Y-62358571D02*
X83640400Y-62472856D01*
X83640400Y-62472856D02*
X83711828Y-62529999D01*
X83711828Y-62529999D02*
X83854685Y-62587142D01*
X83854685Y-62587142D02*
X84283257Y-62587142D01*
X84283257Y-62587142D02*
X84426114Y-62529999D01*
X84426114Y-62529999D02*
X84497542Y-62472856D01*
X84497542Y-62472856D02*
X84568971Y-62358571D01*
X84568971Y-62358571D02*
X84568971Y-62187142D01*
X84568971Y-62187142D02*
X84497542Y-62072856D01*
X84497542Y-62072856D02*
X84426114Y-62015714D01*
X84426114Y-62015714D02*
X84283257Y-61958571D01*
X84283257Y-61958571D02*
X83854685Y-61958571D01*
X83854685Y-61958571D02*
X83711828Y-62015714D01*
X83711828Y-62015714D02*
X83640400Y-62072856D01*
X83640400Y-62072856D02*
X83568971Y-62187142D01*
X83568971Y-62187142D02*
X83568971Y-62358571D01*
X83568971Y-60930000D02*
X84354685Y-60930000D01*
X84354685Y-60930000D02*
X84497542Y-60987142D01*
X84497542Y-60987142D02*
X84568971Y-61101428D01*
X84568971Y-61101428D02*
X84568971Y-61330000D01*
X84568971Y-61330000D02*
X84497542Y-61444285D01*
X83640400Y-60930000D02*
X83568971Y-61044285D01*
X83568971Y-61044285D02*
X83568971Y-61330000D01*
X83568971Y-61330000D02*
X83640400Y-61444285D01*
X83640400Y-61444285D02*
X83783257Y-61501428D01*
X83783257Y-61501428D02*
X83926114Y-61501428D01*
X83926114Y-61501428D02*
X84068971Y-61444285D01*
X84068971Y-61444285D02*
X84140400Y-61330000D01*
X84140400Y-61330000D02*
X84140400Y-61044285D01*
X84140400Y-61044285D02*
X84211828Y-60930000D01*
X83568971Y-60358571D02*
X84568971Y-60358571D01*
X84283257Y-60358571D02*
X84426114Y-60301428D01*
X84426114Y-60301428D02*
X84497542Y-60244286D01*
X84497542Y-60244286D02*
X84568971Y-60130000D01*
X84568971Y-60130000D02*
X84568971Y-60015714D01*
X83568971Y-59101429D02*
X85068971Y-59101429D01*
X83640400Y-59101429D02*
X83568971Y-59215714D01*
X83568971Y-59215714D02*
X83568971Y-59444286D01*
X83568971Y-59444286D02*
X83640400Y-59558571D01*
X83640400Y-59558571D02*
X83711828Y-59615714D01*
X83711828Y-59615714D02*
X83854685Y-59672857D01*
X83854685Y-59672857D02*
X84283257Y-59672857D01*
X84283257Y-59672857D02*
X84426114Y-59615714D01*
X84426114Y-59615714D02*
X84497542Y-59558571D01*
X84497542Y-59558571D02*
X84568971Y-59444286D01*
X84568971Y-59444286D02*
X84568971Y-59215714D01*
X84568971Y-59215714D02*
X84497542Y-59101429D01*
X85140400Y-57672857D02*
X83211828Y-58701429D01*
X83568971Y-57272857D02*
X85068971Y-57272857D01*
X85068971Y-57272857D02*
X83997542Y-56872857D01*
X83997542Y-56872857D02*
X85068971Y-56472857D01*
X85068971Y-56472857D02*
X83568971Y-56472857D01*
X83568971Y-55730000D02*
X83640400Y-55844285D01*
X83640400Y-55844285D02*
X83711828Y-55901428D01*
X83711828Y-55901428D02*
X83854685Y-55958571D01*
X83854685Y-55958571D02*
X84283257Y-55958571D01*
X84283257Y-55958571D02*
X84426114Y-55901428D01*
X84426114Y-55901428D02*
X84497542Y-55844285D01*
X84497542Y-55844285D02*
X84568971Y-55730000D01*
X84568971Y-55730000D02*
X84568971Y-55558571D01*
X84568971Y-55558571D02*
X84497542Y-55444285D01*
X84497542Y-55444285D02*
X84426114Y-55387143D01*
X84426114Y-55387143D02*
X84283257Y-55330000D01*
X84283257Y-55330000D02*
X83854685Y-55330000D01*
X83854685Y-55330000D02*
X83711828Y-55387143D01*
X83711828Y-55387143D02*
X83640400Y-55444285D01*
X83640400Y-55444285D02*
X83568971Y-55558571D01*
X83568971Y-55558571D02*
X83568971Y-55730000D01*
X84568971Y-54301429D02*
X83568971Y-54301429D01*
X84568971Y-54815714D02*
X83783257Y-54815714D01*
X83783257Y-54815714D02*
X83640400Y-54758571D01*
X83640400Y-54758571D02*
X83568971Y-54644286D01*
X83568971Y-54644286D02*
X83568971Y-54472857D01*
X83568971Y-54472857D02*
X83640400Y-54358571D01*
X83640400Y-54358571D02*
X83711828Y-54301429D01*
X83640400Y-53787143D02*
X83568971Y-53672857D01*
X83568971Y-53672857D02*
X83568971Y-53444286D01*
X83568971Y-53444286D02*
X83640400Y-53330000D01*
X83640400Y-53330000D02*
X83783257Y-53272857D01*
X83783257Y-53272857D02*
X83854685Y-53272857D01*
X83854685Y-53272857D02*
X83997542Y-53330000D01*
X83997542Y-53330000D02*
X84068971Y-53444286D01*
X84068971Y-53444286D02*
X84068971Y-53615715D01*
X84068971Y-53615715D02*
X84140400Y-53730000D01*
X84140400Y-53730000D02*
X84283257Y-53787143D01*
X84283257Y-53787143D02*
X84354685Y-53787143D01*
X84354685Y-53787143D02*
X84497542Y-53730000D01*
X84497542Y-53730000D02*
X84568971Y-53615715D01*
X84568971Y-53615715D02*
X84568971Y-53444286D01*
X84568971Y-53444286D02*
X84497542Y-53330000D01*
X83640400Y-52301428D02*
X83568971Y-52415714D01*
X83568971Y-52415714D02*
X83568971Y-52644286D01*
X83568971Y-52644286D02*
X83640400Y-52758571D01*
X83640400Y-52758571D02*
X83783257Y-52815714D01*
X83783257Y-52815714D02*
X84354685Y-52815714D01*
X84354685Y-52815714D02*
X84497542Y-52758571D01*
X84497542Y-52758571D02*
X84568971Y-52644286D01*
X84568971Y-52644286D02*
X84568971Y-52415714D01*
X84568971Y-52415714D02*
X84497542Y-52301428D01*
X84497542Y-52301428D02*
X84354685Y-52244286D01*
X84354685Y-52244286D02*
X84211828Y-52244286D01*
X84211828Y-52244286D02*
X84068971Y-52815714D01*
X81225400Y-62187142D02*
X81153971Y-62015714D01*
X81153971Y-62015714D02*
X81153971Y-61729999D01*
X81153971Y-61729999D02*
X81225400Y-61615714D01*
X81225400Y-61615714D02*
X81296828Y-61558571D01*
X81296828Y-61558571D02*
X81439685Y-61501428D01*
X81439685Y-61501428D02*
X81582542Y-61501428D01*
X81582542Y-61501428D02*
X81725400Y-61558571D01*
X81725400Y-61558571D02*
X81796828Y-61615714D01*
X81796828Y-61615714D02*
X81868257Y-61729999D01*
X81868257Y-61729999D02*
X81939685Y-61958571D01*
X81939685Y-61958571D02*
X82011114Y-62072856D01*
X82011114Y-62072856D02*
X82082542Y-62129999D01*
X82082542Y-62129999D02*
X82225400Y-62187142D01*
X82225400Y-62187142D02*
X82368257Y-62187142D01*
X82368257Y-62187142D02*
X82511114Y-62129999D01*
X82511114Y-62129999D02*
X82582542Y-62072856D01*
X82582542Y-62072856D02*
X82653971Y-61958571D01*
X82653971Y-61958571D02*
X82653971Y-61672856D01*
X82653971Y-61672856D02*
X82582542Y-61501428D01*
X82153971Y-61101428D02*
X81153971Y-60872857D01*
X81153971Y-60872857D02*
X81868257Y-60644285D01*
X81868257Y-60644285D02*
X81153971Y-60415714D01*
X81153971Y-60415714D02*
X82153971Y-60187142D01*
X81153971Y-59729999D02*
X82153971Y-59729999D01*
X82653971Y-59729999D02*
X82582542Y-59787142D01*
X82582542Y-59787142D02*
X82511114Y-59729999D01*
X82511114Y-59729999D02*
X82582542Y-59672856D01*
X82582542Y-59672856D02*
X82653971Y-59729999D01*
X82653971Y-59729999D02*
X82511114Y-59729999D01*
X82153971Y-59329999D02*
X82153971Y-58872856D01*
X82653971Y-59158570D02*
X81368257Y-59158570D01*
X81368257Y-59158570D02*
X81225400Y-59101427D01*
X81225400Y-59101427D02*
X81153971Y-58987142D01*
X81153971Y-58987142D02*
X81153971Y-58872856D01*
X81225400Y-57958571D02*
X81153971Y-58072856D01*
X81153971Y-58072856D02*
X81153971Y-58301428D01*
X81153971Y-58301428D02*
X81225400Y-58415713D01*
X81225400Y-58415713D02*
X81296828Y-58472856D01*
X81296828Y-58472856D02*
X81439685Y-58529999D01*
X81439685Y-58529999D02*
X81868257Y-58529999D01*
X81868257Y-58529999D02*
X82011114Y-58472856D01*
X82011114Y-58472856D02*
X82082542Y-58415713D01*
X82082542Y-58415713D02*
X82153971Y-58301428D01*
X82153971Y-58301428D02*
X82153971Y-58072856D01*
X82153971Y-58072856D02*
X82082542Y-57958571D01*
X81153971Y-57444285D02*
X82653971Y-57444285D01*
X81153971Y-56930000D02*
X81939685Y-56930000D01*
X81939685Y-56930000D02*
X82082542Y-56987142D01*
X82082542Y-56987142D02*
X82153971Y-57101428D01*
X82153971Y-57101428D02*
X82153971Y-57272857D01*
X82153971Y-57272857D02*
X82082542Y-57387142D01*
X82082542Y-57387142D02*
X82011114Y-57444285D01*
D13*
X47452057Y-72708395D02*
X44452057Y-72708395D01*
X44452057Y-72708395D02*
X44452057Y-73303633D01*
X44452057Y-73303633D02*
X44594914Y-73660776D01*
X44594914Y-73660776D02*
X44880628Y-73898871D01*
X44880628Y-73898871D02*
X45166342Y-74017918D01*
X45166342Y-74017918D02*
X45737771Y-74136966D01*
X45737771Y-74136966D02*
X46166342Y-74136966D01*
X46166342Y-74136966D02*
X46737771Y-74017918D01*
X46737771Y-74017918D02*
X47023485Y-73898871D01*
X47023485Y-73898871D02*
X47309200Y-73660776D01*
X47309200Y-73660776D02*
X47452057Y-73303633D01*
X47452057Y-73303633D02*
X47452057Y-72708395D01*
X47309200Y-76160776D02*
X47452057Y-75922680D01*
X47452057Y-75922680D02*
X47452057Y-75446490D01*
X47452057Y-75446490D02*
X47309200Y-75208395D01*
X47309200Y-75208395D02*
X47023485Y-75089347D01*
X47023485Y-75089347D02*
X45880628Y-75089347D01*
X45880628Y-75089347D02*
X45594914Y-75208395D01*
X45594914Y-75208395D02*
X45452057Y-75446490D01*
X45452057Y-75446490D02*
X45452057Y-75922680D01*
X45452057Y-75922680D02*
X45594914Y-76160776D01*
X45594914Y-76160776D02*
X45880628Y-76279823D01*
X45880628Y-76279823D02*
X46166342Y-76279823D01*
X46166342Y-76279823D02*
X46452057Y-75089347D01*
X47309200Y-77232204D02*
X47452057Y-77470299D01*
X47452057Y-77470299D02*
X47452057Y-77946490D01*
X47452057Y-77946490D02*
X47309200Y-78184585D01*
X47309200Y-78184585D02*
X47023485Y-78303633D01*
X47023485Y-78303633D02*
X46880628Y-78303633D01*
X46880628Y-78303633D02*
X46594914Y-78184585D01*
X46594914Y-78184585D02*
X46452057Y-77946490D01*
X46452057Y-77946490D02*
X46452057Y-77589347D01*
X46452057Y-77589347D02*
X46309200Y-77351252D01*
X46309200Y-77351252D02*
X46023485Y-77232204D01*
X46023485Y-77232204D02*
X45880628Y-77232204D01*
X45880628Y-77232204D02*
X45594914Y-77351252D01*
X45594914Y-77351252D02*
X45452057Y-77589347D01*
X45452057Y-77589347D02*
X45452057Y-77946490D01*
X45452057Y-77946490D02*
X45594914Y-78184585D01*
X47452057Y-79375062D02*
X44452057Y-79375062D01*
X46309200Y-79613157D02*
X47452057Y-80327443D01*
X45452057Y-80327443D02*
X46594914Y-79375062D01*
X47452057Y-81398872D02*
X44452057Y-81398872D01*
X45880628Y-81398872D02*
X45880628Y-82827443D01*
X47452057Y-82827443D02*
X44452057Y-82827443D01*
X47452057Y-84375062D02*
X47309200Y-84136967D01*
X47309200Y-84136967D02*
X47166342Y-84017920D01*
X47166342Y-84017920D02*
X46880628Y-83898872D01*
X46880628Y-83898872D02*
X46023485Y-83898872D01*
X46023485Y-83898872D02*
X45737771Y-84017920D01*
X45737771Y-84017920D02*
X45594914Y-84136967D01*
X45594914Y-84136967D02*
X45452057Y-84375062D01*
X45452057Y-84375062D02*
X45452057Y-84732205D01*
X45452057Y-84732205D02*
X45594914Y-84970301D01*
X45594914Y-84970301D02*
X45737771Y-85089348D01*
X45737771Y-85089348D02*
X46023485Y-85208396D01*
X46023485Y-85208396D02*
X46880628Y-85208396D01*
X46880628Y-85208396D02*
X47166342Y-85089348D01*
X47166342Y-85089348D02*
X47309200Y-84970301D01*
X47309200Y-84970301D02*
X47452057Y-84732205D01*
X47452057Y-84732205D02*
X47452057Y-84375062D01*
X45452057Y-86279825D02*
X48452057Y-86279825D01*
X45594914Y-86279825D02*
X45452057Y-86517920D01*
X45452057Y-86517920D02*
X45452057Y-86994110D01*
X45452057Y-86994110D02*
X45594914Y-87232206D01*
X45594914Y-87232206D02*
X45737771Y-87351253D01*
X45737771Y-87351253D02*
X46023485Y-87470301D01*
X46023485Y-87470301D02*
X46880628Y-87470301D01*
X46880628Y-87470301D02*
X47166342Y-87351253D01*
X47166342Y-87351253D02*
X47309200Y-87232206D01*
X47309200Y-87232206D02*
X47452057Y-86994110D01*
X47452057Y-86994110D02*
X47452057Y-86517920D01*
X47452057Y-86517920D02*
X47309200Y-86279825D01*
M02*
