%TF.GenerationSoftware,KiCad,Pcbnew,7.0.9*%
%TF.CreationDate,2024-09-14T16:33:58+02:00*%
%TF.ProjectId,DeskHop_Rev1,4465736b-486f-4705-9f52-6576312e6b69,rev?*%
%TF.SameCoordinates,Original*%
%TF.FileFunction,Soldermask,Bot*%
%TF.FilePolarity,Negative*%
%FSLAX46Y46*%
G04 Gerber Fmt 4.6, Leading zero omitted, Abs format (unit mm)*
G04 Created by KiCad (PCBNEW 7.0.9) date 2024-09-14 16:33:58*
%MOMM*%
%LPD*%
G01*
G04 APERTURE LIST*
%ADD10O,1.800000X1.800000*%
%ADD11O,1.500000X1.500000*%
%ADD12O,1.700000X1.700000*%
%ADD13R,1.700000X1.700000*%
%ADD14R,1.600000X1.500000*%
%ADD15C,1.600000*%
%ADD16C,3.000000*%
%ADD17C,3.100000*%
%ADD18C,5.400000*%
G04 APERTURE END LIST*
D10*
%TO.C,U1*%
X82619000Y-44834000D03*
D11*
X82919000Y-47864000D03*
X87769000Y-47864000D03*
D10*
X88069000Y-44834000D03*
D12*
X76454000Y-44704000D03*
X76454000Y-47244000D03*
D13*
X76454000Y-49784000D03*
D12*
X76454000Y-52324000D03*
X76454000Y-54864000D03*
X76454000Y-57404000D03*
X76454000Y-59944000D03*
D13*
X76454000Y-62484000D03*
D12*
X76454000Y-65024000D03*
X76454000Y-67564000D03*
X76454000Y-70104000D03*
X76454000Y-72644000D03*
D13*
X76454000Y-75184000D03*
D12*
X76454000Y-77724000D03*
X76454000Y-80264000D03*
X76454000Y-82804000D03*
X76454000Y-85344000D03*
D13*
X76454000Y-87884000D03*
D12*
X76454000Y-90424000D03*
X76454000Y-92964000D03*
X94234000Y-92964000D03*
X94234000Y-90424000D03*
D13*
X94234000Y-87884000D03*
D12*
X94234000Y-85344000D03*
X94234000Y-82804000D03*
X94234000Y-80264000D03*
X94234000Y-77724000D03*
D13*
X94234000Y-75184000D03*
D12*
X94234000Y-72644000D03*
X94234000Y-70104000D03*
X94234000Y-67564000D03*
X94234000Y-65024000D03*
D13*
X94234000Y-62484000D03*
D12*
X94234000Y-59944000D03*
X94234000Y-57404000D03*
X94234000Y-54864000D03*
X94234000Y-52324000D03*
D13*
X94234000Y-49784000D03*
D12*
X94234000Y-47244000D03*
X94234000Y-44704000D03*
X82804000Y-92734000D03*
D13*
X85344000Y-92734000D03*
D12*
X87884000Y-92734000D03*
%TD*%
D10*
%TO.C,U2*%
X46160523Y-44818249D03*
D11*
X46460523Y-47848249D03*
X51310523Y-47848249D03*
D10*
X51610523Y-44818249D03*
D12*
X39995523Y-44688249D03*
X39995523Y-47228249D03*
D13*
X39995523Y-49768249D03*
D12*
X39995523Y-52308249D03*
X39995523Y-54848249D03*
X39995523Y-57388249D03*
X39995523Y-59928249D03*
D13*
X39995523Y-62468249D03*
D12*
X39995523Y-65008249D03*
X39995523Y-67548249D03*
X39995523Y-70088249D03*
X39995523Y-72628249D03*
D13*
X39995523Y-75168249D03*
D12*
X39995523Y-77708249D03*
X39995523Y-80248249D03*
X39995523Y-82788249D03*
X39995523Y-85328249D03*
D13*
X39995523Y-87868249D03*
D12*
X39995523Y-90408249D03*
X39995523Y-92948249D03*
X57775523Y-92948249D03*
X57775523Y-90408249D03*
D13*
X57775523Y-87868249D03*
D12*
X57775523Y-85328249D03*
X57775523Y-82788249D03*
X57775523Y-80248249D03*
X57775523Y-77708249D03*
D13*
X57775523Y-75168249D03*
D12*
X57775523Y-72628249D03*
X57775523Y-70088249D03*
X57775523Y-67548249D03*
X57775523Y-65008249D03*
D13*
X57775523Y-62468249D03*
D12*
X57775523Y-59928249D03*
X57775523Y-57388249D03*
X57775523Y-54848249D03*
X57775523Y-52308249D03*
D13*
X57775523Y-49768249D03*
D12*
X57775523Y-47228249D03*
X57775523Y-44688249D03*
X46345523Y-92718249D03*
D13*
X48885523Y-92718249D03*
D12*
X51425523Y-92718249D03*
%TD*%
D14*
%TO.C,J4*%
X45776000Y-101574000D03*
D15*
X48276000Y-101574000D03*
X50276000Y-101574000D03*
X52776000Y-101574000D03*
D16*
X42706000Y-104284000D03*
X55846000Y-104284000D03*
%TD*%
D13*
%TO.C,J3*%
X95667537Y-99795757D03*
D12*
X95667537Y-102335757D03*
X95667537Y-104875757D03*
%TD*%
D17*
%TO.C,H2*%
X96774000Y-111506000D03*
D18*
X96774000Y-111506000D03*
%TD*%
D14*
%TO.C,J1*%
X81082000Y-101574000D03*
D15*
X83582000Y-101574000D03*
X85582000Y-101574000D03*
X88082000Y-101574000D03*
D16*
X78012000Y-104284000D03*
X91152000Y-104284000D03*
%TD*%
D17*
%TO.C,H1*%
X37846000Y-111506000D03*
D18*
X37846000Y-111506000D03*
%TD*%
D13*
%TO.C,J2*%
X60731042Y-99717876D03*
D12*
X60731042Y-102257876D03*
X60731042Y-104797876D03*
%TD*%
D17*
%TO.C,H3*%
X67315520Y-45178990D03*
D18*
X67315520Y-45178990D03*
%TD*%
M02*
