<?xml version="1.0" encoding="UTF-8"?>
<svg xmlns="http://www.w3.org/2000/svg" xmlns:xlink="http://www.w3.org/1999/xlink" width="240" height="67.118644" viewBox="0 0 240 67.118644">
<path fill-rule="nonzero" fill="rgb(47.45098%, 47.45098%, 47.45098%)" fill-opacity="1" d="M 12.445312 17.707031 L 12.445312 53.871094 L 90.851562 53.871094 L 90.851562 17.707031 L 87.730469 17.707031 L 87.664062 50.683594 L 15.632812 50.683594 L 15.632812 20.894531 L 76.917969 20.894531 L 76.917969 17.707031 Z M 12.445312 17.707031 "/>
<path fill-rule="nonzero" fill="rgb(47.45098%, 47.45098%, 47.45098%)" fill-opacity="1" d="M 30.839844 36.175781 C 30.839844 33.445312 30.558594 31.496094 29.992188 30.324219 C 29.4375 29.152344 28.519531 28.566406 27.242188 28.566406 C 25.972656 28.566406 25.054688 29.152344 24.488281 30.324219 C 23.933594 31.496094 23.65625 33.445312 23.65625 36.175781 C 23.65625 38.898438 23.933594 40.847656 24.488281 42.015625 C 25.054688 43.1875 25.972656 43.773438 27.242188 43.773438 C 28.519531 43.773438 29.4375 43.191406 29.992188 42.03125 C 30.558594 40.859375 30.839844 38.910156 30.839844 36.175781 M 33.46875 36.175781 C 33.46875 39.414062 32.953125 41.832031 31.925781 43.425781 C 30.902344 45.019531 29.34375 45.816406 27.242188 45.816406 C 25.140625 45.816406 23.582031 45.023438 22.558594 43.4375 C 21.539062 41.851562 21.027344 39.429688 21.027344 36.175781 C 21.027344 32.929688 21.539062 30.511719 22.558594 28.917969 C 23.589844 27.324219 25.148438 26.527344 27.242188 26.527344 C 29.34375 26.527344 30.902344 27.324219 31.925781 28.917969 C 32.953125 30.511719 33.46875 32.929688 33.46875 36.175781 "/>
<path fill-rule="nonzero" fill="rgb(47.45098%, 47.45098%, 47.45098%)" fill-opacity="1" d="M 47.519531 27.5 L 47.519531 30.054688 C 46.753906 29.5625 45.988281 29.195312 45.214844 28.945312 C 44.453125 28.695312 43.679688 28.570312 42.898438 28.570312 C 41.710938 28.570312 40.773438 28.851562 40.085938 29.40625 C 39.394531 29.953125 39.050781 30.695312 39.050781 31.636719 C 39.050781 32.457031 39.273438 33.082031 39.722656 33.515625 C 40.179688 33.945312 41.027344 34.308594 42.265625 34.597656 L 43.585938 34.898438 C 45.328125 35.304688 46.597656 35.945312 47.394531 36.816406 C 48.191406 37.6875 48.589844 38.875 48.589844 40.378906 C 48.589844 42.144531 48.042969 43.496094 46.945312 44.425781 C 45.851562 45.355469 44.257812 45.820312 42.164062 45.820312 C 41.292969 45.820312 40.417969 45.722656 39.535156 45.53125 C 38.65625 45.351562 37.773438 45.070312 36.882812 44.699219 L 36.882812 42.019531 C 37.839844 42.625 38.738281 43.070312 39.585938 43.351562 C 40.441406 43.636719 41.300781 43.777344 42.164062 43.777344 C 43.433594 43.777344 44.421875 43.496094 45.128906 42.929688 C 45.835938 42.355469 46.1875 41.558594 46.1875 40.539062 C 46.1875 39.609375 45.941406 38.898438 45.453125 38.410156 C 44.972656 37.917969 44.128906 37.542969 42.925781 37.277344 L 41.578125 36.964844 C 39.851562 36.574219 38.597656 35.984375 37.820312 35.195312 C 37.039062 34.40625 36.648438 33.347656 36.648438 32.019531 C 36.648438 30.359375 37.203125 29.03125 38.316406 28.035156 C 39.4375 27.03125 40.921875 26.527344 42.773438 26.527344 C 43.488281 26.527344 44.238281 26.613281 45.027344 26.777344 C 45.816406 26.9375 46.648438 27.175781 47.519531 27.5 "/>
<path fill-rule="nonzero" fill="rgb(47.45098%, 47.45098%, 47.45098%)" fill-opacity="1" d="M 51.960938 26.863281 L 54.488281 26.863281 L 54.488281 34.484375 L 61.375 34.484375 L 61.375 26.863281 L 63.902344 26.863281 L 63.902344 45.457031 L 61.375 45.457031 L 61.375 36.601562 L 54.488281 36.601562 L 54.488281 45.457031 L 51.960938 45.457031 L 51.960938 26.863281 "/>
<path fill-rule="nonzero" fill="rgb(100%, 26.666667%, 26.666667%)" fill-opacity="1" d="M 65.601562 26.863281 L 68.054688 26.863281 L 69.835938 41.957031 L 71.953125 31.96875 L 74.578125 31.96875 L 76.722656 41.980469 L 82.753906 13.046875 L 85.207031 13.046875 L 78.179688 45.457031 L 75.800781 45.457031 L 73.273438 34.410156 L 70.757812 45.457031 L 68.378906 45.457031 L 65.601562 26.863281 "/>
<path fill-rule="nonzero" fill="rgb(47.45098%, 47.45098%, 47.45098%)" fill-opacity="1" d="M 104.113281 44.050781 C 105.035156 44.050781 105.792969 43.953125 106.386719 43.761719 C 107.445312 43.40625 108.3125 42.722656 108.988281 41.707031 C 109.527344 40.894531 109.914062 39.855469 110.152344 38.585938 C 110.289062 37.832031 110.359375 37.128906 110.359375 36.480469 C 110.359375 33.988281 109.863281 32.054688 108.871094 30.675781 C 107.882812 29.296875 106.285156 28.609375 104.089844 28.609375 L 99.253906 28.609375 L 99.253906 44.050781 Z M 96.519531 26.265625 L 104.664062 26.265625 C 107.429688 26.265625 109.574219 27.25 111.097656 29.210938 C 112.457031 30.980469 113.136719 33.25 113.136719 36.015625 C 113.136719 38.148438 112.734375 40.078125 111.929688 41.804688 C 110.515625 44.851562 108.085938 46.375 104.636719 46.375 L 96.519531 46.375 Z M 116.902344 26.265625 L 131.5625 26.265625 L 131.5625 28.730469 L 119.558594 28.730469 L 119.558594 34.835938 L 130.65625 34.835938 L 130.65625 37.164062 L 119.558594 37.164062 L 119.558594 43.980469 L 131.765625 43.980469 L 131.765625 46.375 L 116.902344 46.375 Z M 140.785156 26.773438 C 143.324219 26.773438 145.15625 27.820312 146.289062 29.910156 C 147.164062 31.523438 147.601562 33.738281 147.601562 36.546875 C 147.601562 39.214844 147.207031 41.417969 146.410156 43.160156 C 145.261719 45.660156 143.382812 46.910156 140.773438 46.910156 C 138.417969 46.910156 136.664062 45.886719 135.515625 43.84375 C 134.558594 42.136719 134.078125 39.847656 134.078125 36.972656 C 134.078125 34.746094 134.367188 32.835938 134.941406 31.234375 C 136.019531 28.261719 137.964844 26.773438 140.785156 26.773438 Z M 140.757812 44.664062 C 142.035156 44.664062 143.054688 44.097656 143.8125 42.96875 C 144.570312 41.835938 144.945312 39.726562 144.945312 36.644531 C 144.945312 34.417969 144.671875 32.585938 144.125 31.148438 C 143.578125 29.710938 142.515625 28.992188 140.9375 28.992188 C 139.484375 28.992188 138.425781 29.675781 137.753906 31.039062 C 137.082031 32.402344 136.746094 34.414062 136.746094 37.066406 C 136.746094 39.066406 136.960938 40.671875 137.390625 41.886719 C 138.046875 43.738281 139.171875 44.664062 140.757812 44.664062 Z M 156.375 26.773438 C 158.914062 26.773438 160.746094 27.820312 161.878906 29.910156 C 162.757812 31.523438 163.191406 33.738281 163.191406 36.546875 C 163.191406 39.214844 162.796875 41.417969 162.003906 43.160156 C 160.851562 45.660156 158.972656 46.910156 156.363281 46.910156 C 154.007812 46.910156 152.257812 45.886719 151.109375 43.84375 C 150.148438 42.136719 149.667969 39.847656 149.667969 36.972656 C 149.667969 34.746094 149.957031 32.835938 150.53125 31.234375 C 151.609375 28.261719 153.558594 26.773438 156.375 26.773438 Z M 156.347656 44.664062 C 157.628906 44.664062 158.644531 44.097656 159.402344 42.96875 C 160.160156 41.835938 160.539062 39.726562 160.539062 36.644531 C 160.539062 34.417969 160.265625 32.585938 159.714844 31.148438 C 159.171875 29.710938 158.105469 28.992188 156.527344 28.992188 C 155.078125 28.992188 154.015625 29.675781 153.34375 31.039062 C 152.675781 32.402344 152.339844 34.414062 152.339844 37.066406 C 152.339844 39.066406 152.554688 40.671875 152.984375 41.886719 C 153.640625 43.738281 154.761719 44.664062 156.347656 44.664062 Z M 171.964844 26.773438 C 174.503906 26.773438 176.335938 27.820312 177.46875 29.910156 C 178.347656 31.523438 178.78125 33.738281 178.78125 36.546875 C 178.78125 39.214844 178.386719 41.417969 177.59375 43.160156 C 176.441406 45.660156 174.5625 46.910156 171.953125 46.910156 C 169.597656 46.910156 167.847656 45.886719 166.695312 43.84375 C 165.738281 42.136719 165.257812 39.847656 165.257812 36.972656 C 165.257812 34.746094 165.546875 32.835938 166.121094 31.234375 C 167.199219 28.261719 169.148438 26.773438 171.964844 26.773438 Z M 171.9375 44.664062 C 173.214844 44.664062 174.234375 44.097656 174.992188 42.96875 C 175.75 41.835938 176.128906 39.726562 176.128906 36.644531 C 176.128906 34.417969 175.855469 32.585938 175.304688 31.148438 C 174.757812 29.710938 173.695312 28.992188 172.117188 28.992188 C 170.667969 28.992188 169.605469 29.675781 168.933594 31.039062 C 168.265625 32.402344 167.929688 34.414062 167.929688 37.066406 C 167.929688 39.066406 168.144531 40.671875 168.570312 41.886719 C 169.226562 43.738281 170.351562 44.664062 171.9375 44.664062 Z M 182.65625 32.496094 L 182.65625 30.605469 C 184.4375 30.433594 185.675781 30.144531 186.382812 29.738281 C 187.082031 29.332031 187.609375 28.371094 187.953125 26.855469 L 189.898438 26.855469 L 189.898438 46.375 L 187.269531 46.375 L 187.269531 32.496094 Z M 204.832031 39.4375 L 204.832031 30.554688 L 198.550781 39.4375 Z M 204.875 46.375 L 204.875 41.585938 L 196.277344 41.585938 L 196.277344 39.175781 L 205.257812 26.71875 L 207.335938 26.71875 L 207.335938 39.4375 L 210.226562 39.4375 L 210.226562 41.585938 L 207.335938 41.585938 L 207.335938 46.375 Z M 214.878906 41.640625 C 214.953125 43 215.476562 43.941406 216.453125 44.460938 C 216.957031 44.734375 217.523438 44.871094 218.152344 44.871094 C 219.328125 44.871094 220.332031 44.378906 221.164062 43.398438 C 221.992188 42.417969 222.582031 40.425781 222.929688 37.421875 C 222.382812 38.292969 221.703125 38.898438 220.894531 39.25 C 220.089844 39.601562 219.21875 39.777344 218.289062 39.777344 C 216.398438 39.777344 214.90625 39.1875 213.804688 38.011719 C 212.707031 36.835938 212.15625 35.320312 212.15625 33.46875 C 212.15625 31.6875 212.699219 30.125 213.785156 28.773438 C 214.871094 27.421875 216.472656 26.746094 218.589844 26.746094 C 221.445312 26.746094 223.417969 28.035156 224.503906 30.605469 C 225.105469 32.019531 225.40625 33.792969 225.40625 35.917969 C 225.40625 38.316406 225.046875 40.445312 224.324219 42.296875 C 223.128906 45.382812 221.105469 46.925781 218.246094 46.925781 C 216.332031 46.925781 214.875 46.421875 213.878906 45.417969 C 212.886719 44.414062 212.386719 43.15625 212.386719 41.640625 Z M 218.617188 37.617188 C 219.59375 37.617188 220.484375 37.292969 221.292969 36.648438 C 222.101562 36.007812 222.503906 34.882812 222.503906 33.277344 C 222.503906 31.835938 222.140625 30.757812 221.414062 30.050781 C 220.691406 29.34375 219.765625 28.992188 218.644531 28.992188 C 217.441406 28.992188 216.484375 29.394531 215.777344 30.203125 C 215.070312 31.011719 214.714844 32.089844 214.714844 33.441406 C 214.714844 34.71875 215.027344 35.734375 215.648438 36.484375 C 216.265625 37.238281 217.257812 37.617188 218.617188 37.617188 Z M 94.261719 24.789062 "/>
</svg>
